<?xml version="1.0" encoding="utf-8"?>
<!-- Generator: Adobe Illustrator 16.0.4, SVG Export Plug-In . SVG Version: 6.00 Build 0)  -->
<!DOCTYPE svg PUBLIC "-//W3C//DTD SVG 1.1//EN" "http://www.w3.org/Graphics/SVG/1.1/DTD/svg11.dtd">
<svg version="1.1" id="Layer_1" xmlns="http://www.w3.org/2000/svg" xmlns:xlink="http://www.w3.org/1999/xlink" x="0px" y="0px"
	 width="612px" height="792px" viewBox="0 0 612 792" enable-background="new 0 0 612 792" xml:space="preserve">
<path fill="#A75D14" stroke="#A75D14" d="M366.913,389.854c10.142,6.341-6.501,11.042-6.037,19.624h-1.512v1.513
	c-0.504,0-1.009,0-1.513,0l0,0l0,0v1.512c-0.503,0-1.006,0-1.509,0c-14.535,1.227-29.288,3.621-43.778,6.034
	c-1.789-0.611-12.082-1.709-12.082-4.529c0-5.809,28.999-4.49,9.054-18.114l0,0l0,0v-1.512c-1.168-0.702-1.704-1.708-1.512-3.021
	l0,0c0.504,0,1.008,0,1.512,0v1.51l0,0l0,0c0.503,0,1.005,0,1.508,0C329.724,392.869,348.396,389.854,366.913,389.854z"/>
<path fill="#9E5C19" stroke="#9E5C19" d="M193.312,211.724h1.51c-2.175,4.716-4.145,11.136-9.059,12.074v1.514l0,0v1.509l0,0
	c0,1.008,0,2.015,0,3.023c3.018,0,6.037,0,9.055,0v1.509c-0.504,0-1.008,0-1.512,0v1.514c-0.504,0-1.008,0-1.512,0l0,0l0,0
	c-1.006,0.503-2.012,1.006-3.018,1.509c-12.266,3.454-27.823,13.72-33.213,25.66l0,0l0,0v1.509l0,0l0,0
	c-1.285,1.823-1.792,3.837-1.511,6.04c-1.313-0.192-2.319,0.343-3.023,1.509c-0.503,0-1.007,0-1.511,0c0-3.019,0-6.037,0-9.055
	h-1.509l0,0v-1.512l0,0c-0.235-6.797,2.143-15.852,5.205-21.973C158.084,226.819,182.29,211.724,193.312,211.724z"/>
<path fill="#894513" stroke="#894513" d="M277.848,492.506l1.514,1.51c-0.415-1.855,0.051-3.382,1.509-4.531
	c1.708,7.706,1.202,15.672,4.535,22.645l0,0v1.512l0,0l0,0c0.502,0,1.005,0,1.507,0c5.314,1.682,12.72,6.036,18.116,6.036
	c1.236,1.389,2.761,2.402,4.53,3.025c-2.654,1.844-3.65,4.368-3.023,7.55h-1.508v1.512c-0.504,0-1.008,0-1.512,0l0,0
	c-10.669,15.305-47.933,12.977-64.916,15.099l0,0c-6.907-0.187-12.53-3.904-19.628-3.019v-1.513c-0.504,0-1.007,0-1.511,0l0,0l0,0
	v-1.512c1.51,0,3.02,0,4.53,0c0-1.008,0-2.017,0-3.024h-1.513l0,0v-1.508l0,0c4.541,0.455,9.274-0.026,13.592-1.51l0,0
	c0.503,0,1.006,0,1.509,0v-1.515c0.503,0,1.006,0,1.509,0v-1.51l0,0l0,0c0-1.008,0-2.016,0-3.023l0,0
	c-1.007-1.007-2.013-2.015-3.018-3.023l0,0c-0.504,0-1.009,0-1.514,0c-1.83-3.127-4.125-7.837-4.526-12.074
	c-1.008,0-2.017,0-3.025,0c0-1.008,0-2.015,0-3.022c2.601-0.329,4.615,0.733,6.046,3.022l0,0c0.504,0,1.008,0,1.512,0
	c4.183,6.522,18.278,2.95,24.826,0.331c6.019-2.407,12.944-6.081,16.94-11.406c5.549-7.396-2.517-7.207-2.517-11.576l0,0
	C273.893,489.404,277.848,488.477,277.848,492.506z"/>
<path fill="#803A12" stroke="#803A12" d="M203.884,533.266c2.036,1.675,4.726,2.136,7.547,1.513v-1.513l0,0
	c2.944,1.215,6.105,2.271,9.055,3.024v1.512l0,0H222c0,1.007,0,2.015,0,3.021c-1.51,0-3.02,0-4.53,0v1.509c-2.013,0-4.025,0-6.038,0
	l0,0v-1.509c-5.032,0-10.064,0-15.096,0v-1.51h-1.512c0-1.511,0-3.021,0-4.531h-1.512l0,0
	C196.746,531.764,200.098,531.374,203.884,533.266z"/>
<path fill="#481C0C" stroke="#481C0C" d="M333.707,128.695l-1.514-4.527c8,1.367,19.065,0.843,25.666,4.53
	c13.936,2.788,28.023,4.594,41.178,10.265c8.133,3.505,34.552,12.178,37.32,21.439c-6.345,0.524-11.127-1.468-16.621-3.021v1.509
	c0.504,0,1.008,0,1.512,0v1.512l0,0l0,0c0.505,0,1.009,0,1.514,0v1.509c0.504,0,1.009,0,1.513,0
	c7.788,7.906,1.917,12.804,3.012,22.651l0,0c-11.834,0.986-20.577-6.373-30.565-12.078c-13.629-7.785-28.563-15.314-43.211-20.945
	c-1.916-0.736-13.781-3.338-13.781-6.228c0-3.261-3.709-5.29-6.037-6.039c0.415-1.857-0.052-3.383-1.516-4.53
	C332.176,130.117,336.089,135.871,333.707,128.695z"/>
<path fill="#773712" stroke="#773712" d="M258.228,142.281c1.99,0.897,3.66,1.331,6.039,1.512c0,1.51,0,3.02,0,4.53l0,0
	c1.038,9.475-3.018,20.231-3.018,30.188c0,3.473-1.484,18.872,3.018,21.136c3.875,0,6.736,2.524,7.548,6.042
	c-9.955-0.562-29.835-9.088-37.746-6.04l0,0c-0.504,0-1.009,0-1.514,0c-0.702,1.167-1.708,1.703-3.021,1.509
	c-0.193-1.313,0.344-2.319,1.512-3.021v-1.511l0,0l0,0c0.503,0,1.006,0,1.509,0c5.726-14.248,7.481-31.364,10.57-46.798
	C250.771,149.813,249.587,142.281,258.228,142.281z"/>
<path fill="#B06219" stroke="#B06219" d="M326.157,374.76c-6.952,0.388-12.329,4.005-19.63,3.021v1.51c-0.504,0-1.008,0-1.512,0l0,0
	l0,0v-1.51c-6.712,1.216-13.007,3.188-19.625,4.529c-0.628-3.181,0.367-5.707,3.02-7.552l0,0v-1.512l0,0h1.509v-1.512
	C298.051,368.589,322.231,363.214,326.157,374.76z"/>
<path fill="#BA6C1C" stroke="#BA6C1C" d="M225.018,495.527L225.018,495.527c0,1.007,0,2.015,0,3.021h-1.514l0,0
	c1.24,1.384,2.765,2.396,4.531,3.023c-1.51,0-3.021,0-4.531,0v1.51l0,0c-0.503,0-1.006,0-1.509,0
	c2.158,1.883,3.237,4.673,3.023,7.551c-0.971,0.208-3.023-0.012-3.023-1.51c-1.171-0.702-1.709-1.709-1.516-3.024
	c-4.381-1.062-10.369-3.498-12.074-7.55h-1.514l0,0l0,0v-1.51c-0.503,0-1.006,0-1.509,0v-1.512c-2.3-2.125-4.702-6.197-7.549-9.058
	c4.646,0,6.224-18.113,9.058-18.113C212.248,468.356,208.966,495.527,225.018,495.527z"/>
<path fill="#A76119" stroke="#A76119" d="M163.12,391.364v-1.515c1.008,0,2.015,0,3.023,0c-3.407,5.548-8.54,9.493-7.551,16.604
	h1.512v1.512c1.324-0.249,8.389,0.668,6.039,3.021c-2.013-0.711-3.524-0.208-4.533,1.51l0,0c1.72,3.572-9.013,1.51-13.589,1.51
	v1.514h-1.511l0,0l0,0c-0.923-3.208-4.055-3.846-7.549-3.023c-1.277,4.152-2.045,9.062-1.51,13.591
	c-2.271-3.174-3.294-6.741-3.022-10.569h-1.511l0,0v-1.512l0,0l0,0h1.511C137,396.027,144.747,391.364,163.12,391.364z"/>
<path fill="#D2801B" stroke="#D2801B" d="M297.475,385.329c2.537-1.59,6.671-2.403,9.054,0c0,1.509,0,3.018,0,4.526
	c0.505,0,1.01,0,1.515,0l0,0c-0.415,1.857,0.052,3.384,1.513,4.533v1.513l0,0l0,0c19.948,13.626-9.056,12.304-9.056,18.113
	c0,4.559,12.08,1.498,12.08,4.533c-12.031,0.755-23.044-2.786-34.721,1.512c-1.465,0,1.116-5.254,1.509-6.044l0,0
	c0.268-3.671-0.339-7.063-1.509-10.57C273.394,390.056,286.851,388.859,297.475,385.329z"/>
<path fill="#9B4E11" stroke="#9B4E11" d="M194.822,404.951c2.015,0,4.029,0,6.044,0l0,0c0,2.016,0,4.031,0,6.047
	c-1.007,0-2.014,0-3.021,0c-2.504,2.924-6.794,3.252-10.57,6.043c-4.328-0.619-8.595-0.875-12.074-3.024
	c-2.145-4.291,15.592-8.895,19.623-9.055v-0.01L194.822,404.951L194.822,404.951z"/>
<path fill="#A55D1E" stroke="#A55D1E" d="M148.024,507.603l-7.547-31.7l0,0l0,0c1.009,1.006,2.017,2.012,3.025,3.019v1.514l0,0l0,0
	c1.006-1.009,2.012-2.017,3.02-3.023l0,0v-1.509l0,0c1.169,0.7,1.706,1.705,1.512,3.019c1.906,0.978,3.694,1.44,6.043,1.514v-1.514
	h-1.51c0-1.006,0-2.013,0-3.019c7.574,7.571,15.673,16.276,24.154,22.644c6.378,4.782,9.401,13.882,15.104,16.611
	c0,1.007,0,1.512,0,1.512c0.503,0,1.006,0,1.509,0c0.505,0.504,1.009,1.007,1.514,1.511l0,0c0,1.008,0,1.511,0,1.511
	c3.794,1.165,6.396,5.637,9.061,7.549v1.508l0,0l0,0c1.008,1.007,2.014,2.015,3.019,3.024l0,0c1.339,1.006,2.9,1.544,4.534,1.512
	v1.512c-7.279,1.035-11.278-6.014-18.118,0l0,0h1.514c0,1.511,0,3.021,0,4.531h1.511v1.51c5.032,0,10.064,0,15.097,0v1.514
	c-7.067,1.83-14.126,3.559-18.875,8.306c-3.319,3.318,14.386,29.496,14.35,36.986h1.509v1.512l0,0c0.503,0,1.007,0,1.511,0l0,0
	v1.512l0,0c0.503,0.504,1.006,1.009,1.51,1.513c-0.503,0-1.006,0-1.51,0c0,1.007,0,2.014,0,3.021c-1.007,0-2.013,0-3.02,0v-1.51
	c-0.504,0-1.008,0-1.512,0v1.51h-1.512c-1.008-1.007-2.016-2.014-3.025-3.021l0,0c-0.503,0-1.006,0-1.509,0l0,0v-1.513h-1.511
	c-0.704-1.337-1.696-1.796-3.024-1.512c-8.724-10.916-21.207-18.655-30.191-29.438C153.68,546.543,152.054,523.702,148.024,507.603z
	"/>
<path fill="#763611" stroke="#763611" d="M315.59,353.624L315.59,353.624c8.677,2.168,17.362,4.89,25.664,7.55v1.51
	c-1.51,0-3.02,0-4.529,0v1.513c-3.161,0.038-5.969,1.512-9.062,1.512l0,0c-1.697,1.697,7.132,7.904-1.507,9.055
	c-3.938-11.532-28.11-6.155-36.242-3.013v1.511h-1.507l0,0v1.509l0,0c-2.655,1.846-3.65,4.372-3.023,7.555
	c6.621-1.339,12.914-3.312,19.627-4.53v1.51l0,0c-0.193,1.314,0.343,2.321,1.512,3.023v1.509l0,0l0,0
	c1.286,1.823,1.795,3.837,1.514,6.04c-0.505,0-1.009,0-1.514,0c-0.074-2.35-0.536-4.139-1.512-6.048
	c-9.226,0.339-20.486,5.201-28.684,9.061c-8.883,0-12.389,10.867-22.646,9.061c-6.059-16.006,0.831-29.836,9.055-43.787
	c0.504,0,1.009,0,1.514,0v-1.509c4.658-0.603,8.259-3.697,12.916-4.362C288.349,350.695,303.939,353.624,315.59,353.624z"/>
<path fill="#471B09" stroke="#471B09" d="M208.409,391.364c-0.503,0-1.006,0-1.509,0c0,1.006,0,1.508,0,1.508
	c-7.089,0-15.419,3.496-22.648,4.528v-1.51c-1.005,0-1.512,0-1.512,0l0,0c-0.502-0.504-1.005-1.008-1.507-1.512l0,0
	c-0.099-6.89-6.287-8.597-12.082-7.547c0-1.007,0-2.015,0-3.022c1.007,0,2.014,0,3.021,0c-2.632-0.718-5.152-1.727-7.548-3.023l0,0
	l0,0C175.537,377.671,208.409,372.923,208.409,391.364z"/>
<path fill="#D07D20" stroke="#D07D20" d="M197.845,344.568c0.502,0,1.004,0,1.507,0c0.505,0.503,1.009,1.006,1.514,1.509
	c1.515,2.208,3.725,3.927,6.044,4.532l0,0v1.512l0,0c1.009,1.007,2.018,2.015,3.026,3.023v1.513l0,0l0,0c0.502,0,1.004,0,1.507,0
	c2.208,5.092,7.123,9.613,7.549,15.097c-5.727-3.578-11.928-13.698-18.62-14.255c-6.743-0.561-13.961,1.227-20.631,2.181l0,0l0,0
	l0,0v-1.511h-1.509v-1.51c-1.008,0-2.016,0-3.024,0v-1.515h1.512c0.075-2.348,0.537-4.135,1.512-6.042c-1.512,0-3.024,0-4.536,0l0,0
	C180.834,344.525,189.609,344.314,197.845,344.568z"/>
<path fill="#BF731B" stroke="#BF731B" d="M170.671,386.835v-1.511c5.362,0.647,10.482,3.02,10.566,9.06l0,0
	c0.504,0.503,1.008,1.006,1.512,1.51l0,0c0,0,0,0.503,0,1.509c0.503,0,1.007,0,1.511,0c0,2.208,9.153,1.726,10.565,1.512
	c-1.277,2.452-4.562,5.121-7.547,6.042l0,0v1.512c-2.375,0.864-13.996,3.726-12.079,7.544l1.509,1.513
	c-4.55,0.435-9.241-0.51-13.589-1.513c-0.504-0.503-1.009-1.006-1.513-1.509l0,0c1.009-1.718,2.52-2.221,4.533-1.51
	c2.351-2.355-4.715-3.268-6.039-3.019v-1.512h-1.512c-0.989-7.112,4.143-11.056,7.551-16.604l0,0v-1.513c0.503,0,1.006,0,1.51,0
	v-1.508l0,0c0.504,0,1.008,0,1.512,0C170.169,386.835,170.671,386.835,170.671,386.835z"/>
<path fill="#E29427" stroke="#E29427" d="M265.774,344.568c2.243-0.373,3.807-0.319,1.507,1.509l0,0v1.514c-1.008,0-2.016,0-3.023,0
	v1.51l0,0c0,1.509,0,3.018,0,4.527l0,0l0,0v1.512c-4.18,6.926-11.13,15.789-12.079,24.156c-8.733,2.597-9.439,19.412-9.061,27.176
	c-1.006-0.505-2.013-1.01-3.019-1.515c-4.178-3.45-10.062-4.022-12.83-6.795c-3.82-3.825-1.399-12.488-3.021-17.362
	c-0.668-2.008-4.189-6.987-5.282-9.062c-2.4-4.557-5.354-10.041-7.544-15.098c-0.504,0-1.009,0-1.514,0l0,0l0,0v-1.514
	c-1.008-1.006-2.015-2.013-3.021-3.021l0,0v-1.513l0,0l0,0c0-1.007,0-2.015,0-3.022c0.503,0,1.006,0,1.509,0v1.514h1.512
	c0,1.007,0,2.014,0,3.021c7.469,1.594,13.415-0.838,21.13,3.021C244.968,369.029,254.312,344.568,265.774,344.568z"/>
<path fill="#D78A2A" stroke="#D78A2A" d="M203.884,543.832c4.133-1.031,9.088-2.239,13.582-1.512c0.504,0,1.008,0,1.512,0v1.512
	c8.319-1.039,23.242,2.319,31.705,4.531c-4.87,11.536-26.447,3.061-31.701,13.584c0,5.499,9.644,9.763,12.081,13.585
	c-8.814,0-15.789-1.343-16.604,9.057h-1.51c0,3.019,0,6.037,0,9.056c-0.504-0.503-1.007-1.007-1.511-1.51l0,0l0,0
	c-0.504-0.503-1.008-1.007-1.512-1.51l0,0v-1.512l0,0c-0.503,0-1.007,0-1.511,0l0,0v-1.511h-1.509
	C206.957,576.602,178.141,543.832,203.884,543.832z"/>
<path fill="#AE641D" stroke="#AE641D" d="M246.149,386.835c0.769-3.634,2.927-6.625,6.04-7.55c0,7.623-1.003,16.011,1.511,22.647
	c10.539,1.856,14.953-11.04,24.159-9.062c-3.726,6.394,2.033,13.949,1.509,21.136l0,0c-0.393,0.789-2.972,6.046-1.509,6.046h1.509
	c-4.556,11.305-1.107,19.204-0.377,29.437c0.952,13.341,0.644,26.802,1.891,40.006c-1.463,1.147-1.93,2.674-1.514,4.532
	c-4.397-10.933-41.144-0.262-48.302,6.036l0,0v1.513l0,0c-0.504,0-1.008,0-1.512,0c-1.824,1.282-3.837,1.788-6.038,1.508l0,0v-1.508
	c1.51,0,3.021,0,4.531,0c-1.769-0.624-3.294-1.638-4.531-3.025l0,0h1.512c0-1.008,0-2.016,0-3.023l0,0l0,0c0.504,0,1.008,0,1.512,0
	c11.02-15.905,11.867-36.924,13.647-56.51C241.527,424.284,239.444,400.238,246.149,386.835z"/>
<path fill="#512410" stroke="#512410" d="M134.438,337.02L134.438,337.02L134.438,337.02v1.512l0,0l0,0
	c2.011,3.193,3.088,6.837,3.023,10.567c0.503,0,1.007,0,1.51,0c1.476,14.826,11.836,20.104,25.669,19.627v1.513l0,0v1.512l0,0l0,0
	l0,0v1.511c-0.503,0-1.006,0-1.509,0v1.509c-0.503,0-1.007,0-1.511,0l0,0l0,0v1.511l0,0c0,1.511,0,3.023,0,4.534l0,0l0,0v1.51l0,0
	h1.511v-1.51c0.503,0,1.006,0,1.509,0l0,0l0,0c3.076,1.205,7.362,1.942,6.037,3.02l0,0l0,0v1.512l0,0
	c-0.503,0.504-1.006,1.008-1.509,1.512l0,0c-0.503,0-1.007,0-1.511,0l0,0v1.512c-0.504,0-1.007,0-1.511,0v1.512l0,0
	c-1.007,0-2.015,0-3.022,0v1.509c-18.369,0-26.12,4.678-28.684,22.648h-1.513l0,0C132.927,388.306,133.324,362.734,134.438,337.02z"
	/>
<path fill="#B76D1E" stroke="#B76D1E" d="M151.044,320.414h1.51c-1.101,13.424,5.036,32.37,21.134,28.682v1.511c0,0,0.504,0,1.509,0
	v-1.511c1.008,0,2.015,0,3.023,0c-0.976,1.908-1.438,3.697-1.511,6.046h-1.512v1.512c1.008,0,2.015,0,3.023,0v1.509h1.512v1.514
	c-2.599-0.329-4.612,0.732-6.044,3.019c-2.453,4.97-7.071,4.664-12.08,6.043l0,0c-12.874-0.323-19.743-5.108-22.253-17.673
	c-1.387-6.94-1.534-19.998,4.134-24.602c0,1.008,0,2.016,0,3.024C145.01,328.257,150.771,320.414,151.044,320.414z"/>
<path fill="#DF992F" stroke="#DF992F" d="M187.275,234.367h1.511c-8.471,12.064-11.953,16.419-10.566,31.698
	c1.65,16.475,6.695,18.005,16.229,27.553c0.632-0.627,1.262-1.257,1.891-1.889c0.426,0,3.236,15.53,4.155,17.359
	c0.151-0.586,0.501-1.006,1.051-1.26c2.417,7.234-2.841,13.433,2.727,18.997c-0.762-0.762-3.458,17.347-3.399,19.251
	c-8.957-1.619-17.601-2.083-25.668,3.02c-17.361,6.489-20.931-14.816-24.155-27.168l0,0c0.504-0.504,1.009-1.009,1.513-1.514l0,0
	c-0.194-10.581,3.018-20.936,3.018-32.123c0-8.916,0-17.832,0-26.748l0,0v-1.512l0,0l0,0
	C162.225,245.299,176.832,244.82,187.275,234.367z"/>
<path fill="#904813" stroke="#904813" d="M218.976,371.739L218.976,371.739c0,2.525,1.044,8.622,0,10.57
	c0,4.466-8.616,5.544-10.567,9.057l0,0c0-18.427-32.874-13.678-43.78-10.562c-0.503,0-1.006,0-1.51,0v1.513h-1.51l0,0v-1.513l0,0
	l0,0c0-1.511,0-3.021,0-4.532l0,0v-1.51l0,0l0,0c0.503,0,1.007,0,1.51,0v-1.512c0.503,0,1.006,0,1.51,0v-1.512l0,0l0,0l0,0v-1.511
	l0,0v-1.513c-1.007,0-2.013,0-3.02,0l0,0l0,0c5.008-1.375,9.626-1.066,12.075-6.037c1.432-2.288,3.446-3.352,6.046-3.023l0,0
	c6.669-0.953,13.889-2.742,20.631-2.18C208.101,358.119,211.39,371.739,218.976,371.739z"/>
<path fill="#E79E33" stroke="#E79E33" d="M228.034,575.533c1.005,0,2.01,0,3.016,0c4.703,4.691,25.046,2.133,31.705,6.042
	c0.355,3.812,0.05,8.527-1.509,12.079c-2.314,5.271-15.094,10.478-15.094,15.098c-8.448-2.992-17.08,4.566-24.154-6.039
	c-7.89-7.884-9.06-6.928-9.06-18.119h1.51C215.31,573.504,221.035,579.046,228.034,575.533z"/>
<path fill="#7B3D0F" stroke="#7B3D0F" d="M294.451,208.705l-1.507-1.511c15.009,2.729,31.639,5.25,44.912,13.209
	c5.594,3.354,11.099,4.64,16.984,9.055c6.077,4.56,7.979,10.3,14.72,14.341c8.544,5.122,5.021,15.851,11.78,22.604
	c4.831,4.827,12.751,14.278,12.751,21.551c0,5.307-2.27,10.512-2.27,15.853c0,5.739,2.437,11.828,2.27,18.114h-1.512l0,0v-1.514
	h-1.513c0-1.007,0-2.014,0-3.021h-1.508l0,0v-1.512h-1.515l0,0v-1.511l0,0c-9.99,2.452-34.726-16.243-41.424-22.932
	c-14.2-14.181-5.645-36.394-25.001-49.532l0,0v-1.512h-1.516v-1.509c-3.962-5.044-10.896-19.243-16.604-21.138
	C301.298,215.44,294.451,212.072,294.451,208.705z"/>
<path fill="#C26F1B" stroke="#C26F1B" d="M297.475,334.001c1.928-0.316,4.08,0,6.04,0c-3.47,2.332-2.641,3.974-3.021,7.549l0,0l0,0
	v1.513l0,0c4.37,2.87,14.225,5.568,15.092,10.566c-13.141,3.475-25.519-3.185-38.411-1.342c-4.657,0.666-8.258,3.76-12.917,4.363
	v1.51c-0.504,0-1.008,0-1.512,0l0,0c-0.192-1.314,0.344-2.321,1.512-3.024v-1.508l0,0l0,0c0-1.509,0-3.019,0-4.528l0,0v-1.512
	c1.007,0,2.013,0,3.02,0v-1.512l0,0c0.503-0.503,1.006-1.006,1.509-1.51l0,0c1.776-0.795,2.693-1.854,4.53-3.021
	C281.824,337.307,288.46,336.997,297.475,334.001z"/>
<path fill="#4B1E0F" stroke="#4B1E0F" d="M256.716,490.996c5.031,0,10.063,0,15.094,0c0,2.754,4.526,2.578,4.526,7.551
	c-1.938,7.775-12.341,12.79-18.948,15.432c-6.549,2.619-20.647,6.188-24.832-0.331c-0.504,0-1.007,0-1.511,0l0,0
	c-1.335-1.007-2.893-1.546-4.525-1.513v-1.512c-1.005,0-1.514,0-1.514,0l0,0l0,0v-1.51h-1.51l0,0v-1.513h-1.511l0,0l0,0
	c0-1.51,0-3.021,0-4.53c0.504,0,1.007,0,1.511,0c2.202,0.281,4.215-0.227,6.038-1.511c0.504,0,1.008,0,1.512,0l0,0v-1.514l0,0
	C238.529,493.473,246.939,491.975,256.716,490.996z"/>
<path fill="#8F4D19" stroke="#8F4D19" d="M197.845,592.14l-3.023-3.016c0.972-0.208,3.025,0.012,3.025,1.512h1.507v1.509l0,0
	c0.504,0,1.008,0,1.512,0l0,0c1.01,1.007,2.02,2.015,3.028,3.023h1.509v-1.514c0.503,0,1.006,0,1.509,0v1.514
	c1.008,0,2.017,0,3.025,0c0-1.008,0-2.016,0-3.023c0.503,0,1.007,0,1.51,0l0,0l0,0c0.503,0.503,1.007,1.007,1.511,1.51
	c2.222,4.191,8.486,9.935,12.835,12.835c7.898,5.268,12.789-0.426,20.378,2.264v1.51c0,0-0.502,0-1.512,0
	c-1.234,1.391-2.76,2.403-4.53,3.024c1.008,0,2.015,0,3.023,0v1.512c-0.504,0-1.008,0-1.512,0v1.512
	c4.065-0.54,7.435,0.442,10.568,3.023l0,0c1.174,1.74-1.009,2.705-4.534,3.019v1.515c-9.658,0.816-14.213,3.308-22.646-3.018
	C214.829,613.202,204.973,602.851,197.845,592.14z"/>
<path fill="#B56918" stroke="#B56918" d="M394.089,385.329c8.427,6.463,9.063,34.023,9.063,45.292
	c-5.434,2.147-10.358,11.093-14.124,16.003c-6.369,8.305-11.069,17.11-16.064,26.264c-0.504,0.504-1.009,1.008-1.513,1.512
	c-7.775,0.493-10.933,8.178-19.459,9.395c-6.771,0.966-20.321,2.666-21.303,10.232c-0.504,0-1.009,0-1.513,0v1.512
	c-1.51,0-3.021,0-4.53,0c0,1.007,0,2.014,0,3.021c-1.51,0-3.019,0-4.528,0l0,0l0,0v-1.509c0.503,0,1.005,0,1.508,0v-1.512l0,0l0,0
	c0.504,0,1.008,0,1.512,0v-1.512c0.505,0,1.01,0,1.515,0v-1.51c1.007,0,2.015,0,3.021,0v-1.515l0,0
	c5.892-12.312,16.955-21.801,22.65-33.21c6.321-12.663,10.762-28.366,16.597-40.759l0,0l0,0c0.505,0,1.01,0,1.515,0v-1.512
	c0.505,0,1.009,0,1.514,0v-1.513l0,0l0,0c1.169-0.7,1.705-1.705,1.512-3.019c-1.009,0-2.017,0-3.025,0c0,1.006,0,2.013,0,3.019
	c-2.212-1.548-4.68-2.581-7.553-3.019v1.51c-0.504,0-1.007,0-1.511,0v1.509c-1.008,0-2.015,0-3.022,0V412.5l0,0l0,0
	c0.503,0,1.007,0,1.51,0v-1.51l0,0l0,0c0.504,0,1.009,0,1.513,0v-1.515h1.511c-0.559-10.431,14.692-9.051,6.045-18.11l0,0
	c0.503-0.503,1.005-1.006,1.508-1.51c2.517,0,5.032,0,7.549,0v-1.515l0,0C380.596,386.469,389.452,380.665,394.089,385.329z"/>
<path fill="#552811" stroke="#552811" d="M421.264,421.558L421.264,421.558c0,16.788-2.171,31.715-4.697,48.138
	c-1.826,11.874-1.028,23.903-1.582,35.854c-0.447,9.657-4.795,16.922-6.178,26.587c-1.221,8.538-10.517,8.324-13.207,17.736
	c-1.494,11.972-4.474,16.545-10.565,25.661c-3.055,9.18-18.845,14.534-16.612,25.663c-3.522,0-7.044,0-10.566,0v-1.508
	c-0.505,0-1.01,0-1.515,0c1.768-3.247,5.327-6.254,4.531-7.553l0,0c-10.107-0.287-20.443,3.603-30.193,6.038l0,0
	c-0.501,0-1.003,0-1.504,0l0,0v1.513h-1.514l0,0v1.508c-2.013,0-4.024,0-6.037,0v1.514c-1.461-1.15-1.928-2.677-1.513-4.534
	c0.504,0,1.009,0,1.513,0l0,0v-1.512l0,0h1.507v-1.51l0,0c0.504,0,1.008,0,1.512,0l0,0v-1.515l0,0h1.516v-1.509l0,0
	c0.505,0,1.009,0,1.514,0l0,0c8.829-16.911,27.601-28.812,31.548-49.206c2.857-14.756,2.461-30.199,4.621-45.134
	c1.229-8.497,5.834-15.001,7.612-23.416l0,0c1.009,0,1.511,0,1.511,0c-0.521-8.439,9.77-16.957,13.891-23.551
	c5.09-8.144,11.26-15.863,16.3-23.248l0,0l0,0c0.651,0.171,6.185,4.531,4.533,4.531v1.512c0.504,0,1.008,0,1.512,0v-1.512l0,0l0,0
	C413.404,428.048,418.133,426.44,421.264,421.558z"/>
<path fill="#925216" stroke="#925216" d="M145.009,264.558c1.007-2.012,2.013-4.025,3.02-6.037v1.509l0,0h1.51
	c0,3.019,0,6.037,0,9.056c0.503,0,1.007,0,1.511,0c0.703-1.167,1.709-1.703,3.022-1.51c-0.281-2.203,0.226-4.217,1.511-6.04l0,0
	c0,8.917,0,17.833,0,26.75c0,11.189-3.212,21.539-3.018,32.122l0,0c-0.502,0.503-1.005,1.006-1.508,1.509l0,0
	c-2.516,2.517-5.032,5.034-7.549,7.55c0-1.008,0-2.016,0-3.023c-5.546,4.509-4.952,15.834-4.53,22.645c-0.503,0-1.007,0-1.51,0
	c0.065-3.73-1.012-7.374-3.023-10.566l0,0l0,0v-1.513l0,0C134.445,312.772,139.097,288.186,145.009,264.558z"/>
<path fill="#230C0A" stroke="#230C0A" d="M455.982,386.835c0.21-0.274,4.535-2.872,4.535-1.511c2.155,2.62,6.533,5.38,7.55,7.92
	c4.341,10.848,4.931,8.623,13.58,15.094c9.751,7.295-8.659,19.177,0.012,29.816l0,0c5.263-0.915,6.855,3.33,9.065,7.55
	c0.445-3.754,2.593-6.677,6.045-7.549c0-1.008,0-2.016,0-3.023c1.006,0,2.013,0,3.019,0v1.512l0,0v1.512l0,0
	c0.401,12.249-1.608,11.242,9.062,16.605c5.084,5.074,0.124,18.933,10.567,18.116c0,1.51,0,3.019,0,4.528c1.006,0,2.012,0,3.018,0
	v-1.513h-1.506l0,0v-1.512l0,0l0,0c0.502,0,1.004,0,1.506,0c0.705-1.167,1.713-1.701,3.027-1.509c0,7.694,1.224,15.02,1.514,22.647
	c-3.466,0.281-7.429,0.057-10.567-1.512c-5.254,0,1.773,10.566-1.512,10.566c-1.512,0-3.022,0-4.534,0
	c-3.259,0.939-5.59,0.291-6.042-3.022c-2.012,0-4.024,0-6.036,0l0,0c0.504,0,1.008,0,1.512,0c-0.973,3.443-1.477,6.929-1.512,10.565
	c0.795-0.379,7.546-3.125,7.546-1.509c0,1.34-7.965,16.742,1.511,13.585c2.317-1.162,7.054,3.354,9.058,4.527
	c0.391,2.672,4.528,9.235,4.528,10.567h1.506v1.512l0,0c0.505,0,1.011,0,1.516,0c-0.103,0.06-2.91,3.024-1.516,3.024h1.516
	c-8.081,0.336-11.02,6.168-12.081,13.585c0,8.022-7.02,11.24-6.038,18.115c-5.059,0.356-6.866-4.582-6.035-9.059
	c-1.386,1.239-2.399,2.765-3.026,4.532l0,0l0,0v1.509c-2.379,3.868-2.784,7.416-6.045,10.574l0,0l0,0v1.51l0,0
	c0.143,0.958-0.374,2.652,0.38,3.401c-0.433-0.431,6.408,1.094,7.178,1.136c2.561,2.556-0.34,12.078,4.525,12.078
	c5.419-2.712,1.697,16.764,1.503,18.111c0,1.428,3.14,15.096,1.52,15.096c0.369,0-7.549,16.422-7.549,15.851
	c0,7.752,5.093,13.934,3.207,23.679c-1.361,7.033-1.7,13.714-1.7,20.851l0,0c0,2.014,0,4.028,0,6.042c-0.502,0-1.004,0-1.506,0l0,0
	v1.509h-1.513l0,0v1.513l0,0c-0.505,0-1.009,0-1.514,0l0,0v1.512h-1.512l0,0v-1.512c-1.51,0-3.02,0-4.529,0
	c0.195-3.064,0.555-21.139-3.023-21.139c-0.107,2.463-1.114,3.469-3.021,3.019c-2.901-5.811-4.531-1.535-4.531-9.056
	c-1.228-3.688-4.152-7.01-6.038-10.566l0,0v-1.512c-1.009,0-2.017,0-3.025,0v1.512c-0.504,0-1.008,0-1.512,0v-1.512
	c-1.51,0-3.021,0-4.53,0c0.983,4.755-0.6,9.331-4.531,12.081c-0.503,0-1.007,0-1.51,0l0,0l0,0v1.51
	c-5.275-6.939-13.709-7.127-21.136-10.567c0.855,3.717-0.096,6.791-3.024,9.06l0,0l0,0v1.512c-0.502,0-1.005,0-1.507,0l0,0
	c0.844-7.898-7.296-27.172-16.608-27.172c-15.193-3.045-45.337,2.188-60.384,5.95c-10.429,2.607-16.893,10.63-27.839,13.511
	c-10.764,2.833-24.707-7.066-32.544-13.417l0,0v1.515c-4.024,0-8.048,0-12.072,0c-11.165-6.818-21.418-12.138-34.72-15.104v1.512
	h-1.507c-1.003,4.349-1.949,9.04-1.514,13.592c-0.504,0-1.009,0-1.514,0c0-4.53,0-9.061,0-13.591c0-6.921-7.506-9.062-6.035-16.599
	h-1.51c-1.006-1.01-2.014-2.018-3.023-3.024l0,0l0,0c28.789,4.64,61.875-17.865,87.55-25.663c-0.192,1.314,0.346,2.321,1.515,3.024
	v-1.516c2.012,0,4.022,0,6.034,0v-1.509l0,0h1.513v-1.51l0,0c0.505,0,1.009,0,1.514,0l0,0c9.749-2.438,20.08-6.324,30.188-6.037l0,0
	c0.809,1.3-2.757,4.294-4.525,7.549c0.502,0,1.005,0,1.507,0v1.512c3.522,0,7.046,0,10.568,0
	c-2.23-11.132,13.566-16.479,16.618-25.665c4.492-6.751,8.086-9.782,9.558-18.617c0.899-5.404,1.136-12.436,5.702-16.435
	c4.294-3.762,7.438-0.808,8.513-8.346c1.155-8.112,5.158-14.436,5.874-22.059c1.262-13.437-0.173-26.994,1.887-40.384
	c2.526-16.423,4.695-31.35,4.695-48.138l0,0c5.785-9.724,7.016-17.367,10.572-27.179c1.631-0.032,3.19,0.506,4.526,1.51l0,0
	c0.504,0,1.008,0,1.512,0c1.184,1.955,2.529,2.013,4.526,0c1.397,2.037,3.024,5.069,3.024,7.551l0,0h1.514v1.508
	c1.007,0,2.014,0,3.021,0c0-1.51,0-3.02,0-4.529c1.009,0,2.017,0,3.025,0C453.328,398.736,454.549,386.835,455.982,386.835z"/>
<path fill="#C07219" stroke="#C07219" d="M321.627,244.936v-3.019c7.269,4.931,13.082,11.239,15.473,19.911
	c1.582,5.739,1.983,11.921,2.476,17.832c0.348,4.169,6.206,8.305,6.206,10.563c0,6.06,35.287,25.871,42.273,24.155l0,0v1.512l0,0
	h1.506v1.51l0,0h1.512c0,1.007,0,2.015,0,3.022h1.514c2.848,25.458-15.131,30.632-36.06,37.244
	c-16.052,5.071-24.933-0.025-40.925-4.027c-0.872-4.997-10.726-7.693-15.097-10.566l0,0v-1.512l0,0l0,0
	c-0.934-4.38,3.02-4.767,3.02-7.549l0,0l0,0c1.632-2.021,3.644-3.538,6.038-4.534c-0.502,0-1.004,0-1.506,0l0,0v-1.511h1.506
	c0.501,0.333-6.036-5.688-6.036-4.531c0-8.499,4.513-3.814-1.007-13.925c-6.195-11.348,1.864-29.306,13.082-34.386l0,0
	c0.505,0,1.01,0,1.515,0v-1.511h1.51c0.479-6.615-8.131-33.214-1.508-33.214C317.165,240.4,321.627,245.343,321.627,244.936z"/>
<path fill="#B66719" stroke="#B66719" d="M218.976,382.306v-6.04c8.49,3.226,5.388,14.223,7.549,21.137
	c-0.845,2.668-6.501,16.605-7.554,16.605c-10.083,0-20.393,3.466-31.701,3.021l0,0c3.778-2.794,8.069-3.116,10.571-6.046
	c1.007,0,2.014,0,3.021,0c0-2.015,0-4.029,0-6.044l0,0c-4.628-0.408-9.405,0-13.592,1.51l0,0v-1.51l0,0
	c2.983-0.922,6.269-3.592,7.548-6.039c-4.025,0-8.051,0-12.077,0v-1.513c-1.17-0.701-1.707-1.708-1.512-3.022
	c1.315-0.193,2.322,0.344,3.024,1.514c0.503,0,1.006,0,1.509,0l0,0c7.592,0.792,13.864-3.018,21.134-3.018c0,0,0-0.502,0-1.511
	C209.561,390.085,218.976,385.73,218.976,382.306z"/>
<path fill="#431B0D" stroke="#431B0D" d="M333.707,364.191c1.004,0,2.008,0,3.012,0l0,0h1.514v1.514
	c12.424,0,23.956,2.281,36.234,3.02c-0.361,3.211,1.328,5.235,4.53,6.038l0,0l0,0c0.393,5.657-3.19,12.094-9.056,12.081v1.51
	c-0.505,0-1.011,0-1.516,0v1.512l0,0c-0.505,0-1.009,0-1.514,0c0,0,0,0.504,0,1.512c-18.311,2.584-37.261,1.512-55.85,1.512
	c-0.505,0-1.009,0-1.514,0l0,0l0,0v-1.512c-0.502,0-1.005,0-1.507,0l0,0v-1.512l0,0c0.466-1.87-0.005-3.409-1.515-4.525l0,0l0,0
	c-0.074-2.349-0.536-4.138-1.511-6.046l0,0c0.504,0,1.007,0,1.511,0v-1.512c6.897,0.929,11.718-3.019,18.119-3.019
	c0.375-0.227,2.8,0,3.021,0c7.942,0-1.078-7.98-0.001-9.055l0,0C328.673,365.702,330.682,365.195,333.707,364.191z"/>
<path fill="#E89D2C" stroke="#E89D2C" d="M360.876,412.5v-1.512c3.524,0,7.049,0,10.573,0c0.193,1.314-0.343,2.319-1.514,3.02l0,0
	l0,0v1.516c-0.504,0-1.008,0-1.512,0v1.51c-0.504,0-1.008,0-1.512,0l0,0l0,0c-5.835,12.389-10.271,28.101-16.603,40.759
	c-5.705,11.408-16.754,20.9-22.648,33.212l0,0v1.512c-1.006,0-2.013,0-3.019,0v1.511c-1.17,0.701-1.706,1.708-1.513,3.022
	c-1.315-0.193-2.323,0.342-3.028,1.51l0,0c-10.936,8.008-21.445,11.187-34.719,13.596c-10.799-22.624-3.271-53.912-9.067-76.995
	c0-24.71,18.133-15.806,36.233-16.607c14.514-0.643,29.343-4.819,43.779-6.035v1.51c1.009,0,2.017,0,3.025,0v-1.51h1.512V412.5
	H360.876z"/>
<path fill="#B5691B" stroke="#B5691B" d="M138.969,414.006v-1.508c6.31-1.49,5.606,1.547,7.549,4.532c0.672,1.032,0,6.471,0,7.101
	c0,6.513,3.609,7.657,6.035,12.527c0,5.551,4.459,1.774,2.641,9.057c-1.659,6.644-2.643,12.719-2.643,19.623
	c-0.128,4.523,0,9.062,0,13.589h1.51v1.513c-2.348-0.074-4.136-0.536-6.043-1.513c0.193-1.313-0.343-2.319-1.512-3.021l0,0v1.51l0,0
	c-1.008,1.006-2.015,2.014-3.02,3.023l0,0l0,0v-1.513c-1.008-1.007-2.017-2.014-3.026-3.021l0,0l0,0
	c-0.887-19.812-5.996-40.25-7.548-60.387l0,0h1.513c-0.271,3.828,0.752,7.395,3.022,10.569
	C137.083,423.022,136.669,416.31,138.969,414.006z"/>
<path fill="#B4641B" stroke="#B4641B" d="M249.168,551.382c0.505-1.006,1.009-2.012,1.514-3.018c0.502,0,1.004,0,1.507,0v1.51l0,0
	l0,0c0,1.51,0,3.019,0,4.528l0,0v1.514l0,0c-0.502,0-1.004,0-1.507,0l0,0v1.51h-1.514c-3.939,2.875-8.699,3.804-13.589,4.529v1.512
	h-1.511c0,1.51,0,3.021,0,4.53c2.012,0,4.025,0,6.037,0v1.512l0,0h1.512v1.511c1.131-0.178,6.038-0.173,6.038,1.513
	c-1.251,1.249-1.699,2.896-1.514,4.531c-4.028,0.094-12.203,1.399-15.095-1.513l0,0c-2.438-3.821-12.081-8.086-12.081-13.588
	C222.158,555.589,249.168,556.253,249.168,551.382z"/>
<path fill="#E1922A" stroke="#E1922A" d="M203.884,498.545c4.953,1.572,13.413,9.057,18.121,9.057l0,0c0,0,0,0.502,0,1.513
	c0.503,0,1.006,0,1.509,0c0.504,0.503,1.009,1.007,1.514,1.51l0,0c0,0,0,0.503,0,1.512c4.026,2.916,4.839,11.546,9.056,13.587l0,0
	c1.007,1.008,2.015,2.015,3.024,3.021l0,0c0,1.008,0,2.016,0,3.023l0,0l0,0v1.511c-0.504,0-1.008,0-1.512,0v1.514
	c-0.504,0-1.008,0-1.512,0l0,0c-10.099,3.468-17.911,0.229-27.174-3.024l0,0c-1.01-1.006-2.019-2.014-3.025-3.023l0,0l0,0v-1.508
	c-2.301-1.651-4.952-4.91-7.549-7.55c-0.504-0.503-1.008-1.007-1.512-1.51l0,0v-1.515c0,0-0.502,0-1.509,0l0,0
	c-0.503-0.503-1.006-1.005-1.51-1.508l0,0l0,0C191.174,507.952,196.189,498.545,203.884,498.545z"/>
<path fill="#C57F25" stroke="#C57F25" d="M232.564,199.647c4.119-1.184,7.555-0.854,10.574,1.509
	c0.056,4.575-1.926,8.76-6.04,10.573l0,0l0,0l0,0c0,2.014,0,4.028,0,6.042c-4.047,0.11-27.171,4.153-27.171,9.058
	c0,4.792-13.836,6.541-18.118,6.04l0,0l0,0l0,0l0,0c0.505,0,1.009,0,1.514,0v-1.511c0.502,0,1.004,0,1.507,0v-1.51
	c-3.019,0-6.037,0-9.055,0c0-1.008,0-2.015,0-3.023l0,0v-1.509l0,0v-1.512c1.009,0,2.017,0,3.026,0
	c0.911-3.958,2.775-6.535,4.53-10.567c0.502-0.504,1.004-1.008,1.507-1.512c3.804,0.742,34.724-11.862,34.724-10.567l0,0
	c0.503-0.503,1.006-1.006,1.509-1.509c-0.484,0,2.018,0,1.493,0V199.647z"/>
<path fill="#E69D32" stroke="#E69D32" d="M226.524,397.4L226.524,397.4c4.758,2.063,9.266,3.218,13.585,7.554
	c1.007,0.503,2.014,1.007,3.021,1.51c-2.601,28.592-0.316,65.519-16.609,89.071c-0.504,0-1.008,0-1.512,0l0,0l0,0
	c-4.448-2.017-11.861-3.875-13.585-9.058c-0.703-2.813-0.096-18.116-4.53-18.116c-2.839,0-4.416,18.112-9.061,18.112
	c2.854,2.859,5.246,6.932,7.549,9.056v1.515c0.504,0,1.008,0,1.512,0v1.509l0,0l0,0h1.507v1.512
	c-8.754-5.224-15.959,4.887-16.605,13.597c0.502,0,1.004,0,1.507,0v1.508c0.504,0,1.007,0,1.511,0v1.514l0,0l0,0
	c1.166,0.698,1.703,1.701,1.512,3.011c-1.008,0-2.016,0-3.023,0v-1.511h-1.507l0,0v-1.513l0,0c-0.504,0-1.009,0-1.514,0l0,0v-1.51
	h-1.509c-0.903-17.534-36.237-25.578-36.237-40.906c0-6.413,5.499-32.101,3.022-34.582c-9.323-4.653-9.054-15.469-9.054-24.155l0,0
	l0,0h1.51v-1.512c10.258,0,20.118,1.512,30.205,1.512c10.611,0,19.237,3.968,30.184-1.509c4.109-2.738,5.966,0.076,9.062-3.02
	C218.509,409.941,227.289,397.4,226.524,397.4z"/>
<path fill="#4A210F" stroke="#4A210F" d="M228.034,140.771c1.511,0,3.021,0,4.532,0c0,1.007,0,2.014,0,3.021
	c1.633-0.033,3.193,0.504,4.531,1.509l0,0c0.503,0,1.007,0,1.511,0v-1.509c0.505,0,1.009,0,1.514,0v1.509h3.016
	c0,1.51,0,3.02,0,4.53l0,0c-3.084,15.436-4.844,32.544-10.565,46.798c-0.504,0-1.008,0-1.512,0c0,1.008,0,2.015,0,3.023
	c-0.503,0.503-1.006,1.006-1.509,1.509l0,0c-6.212,2.949-13.613,2.776-20.298,4.865c-5.37,1.678-8.18,6.92-14.425,5.702
	c-0.503,0.504-1.006,1.007-1.509,1.511c-13.052,2.882-29.322,9.354-38.075,20.299c-1.064,1.331-3.105,8.388-4.953,8.388
	c-4.96,0-7.541-1.118-9.809,6.035l0,0c-0.503,0-1.006,0-1.51,0l0,0v1.513h-1.512l0,0v1.512l0,0c-0.504,0-1.008,0-1.512,0l0,0v-1.512
	h-1.508l0,0v1.512l0,0c-0.504,0-1.008,0-1.513,0c-0.703,1.167-1.709,1.702-3.022,1.509c-0.193-1.312,0.342-2.318,1.509-3.021v-1.513
	l0,0l0,0l0,0c0-1.511,0-3.022,0-4.533h1.513v-1.512l0,0h1.513c-0.263-4.208,0.851-8.462,3.02-12.077c0,0,0.505,0,1.512,0
	c2.26-8.415,8.938-16.721,13.586-24.157l0,0v-1.509l0,0v-1.512l0,0c2.013,0,4.025,0,6.038,0v-1.511l0,0h1.513v-1.512l0,0
	c2.859-1.22,18.115-18.386,18.115-21.134c0-10.823,28.683-16.479,28.683-27.172l0,0c0,0,0.502,0,1.512,0v-1.509
	C212.105,149.313,228.034,144.117,228.034,140.771z"/>
<path fill="#260C08" stroke="#260C08" d="M317.1,124.168c14.411,0,15.094-1.428,15.094,10.564c1.462,1.147,1.93,2.672,1.515,4.529
	c2.321,0.75,6.04,2.785,6.04,6.04c0,2.888,11.862,5.49,13.778,6.227c14.646,5.634,29.586,13.155,43.212,20.947
	c9.98,5.707,18.741,13.062,30.569,12.075l0,0c-1.099-9.853,4.773-14.737-3.016-22.65c-0.502,0-1.005,0-1.507,0v-1.509
	c-0.504,0-1.008,0-1.512,0l0,0l0,0v-1.512c-0.505,0-1.011,0-1.516,0v-1.511c5.106,1.446,10.011,4.543,15.107,1.511v1.512
	c0.503,0,1.007,0,1.51,0c9.311,6.206,29.496,15.512,31.698,27.173c1.009,0,2.017,0,3.025,0c-0.192,1.315,0.346,2.322,1.516,3.025
	l0,0v1.51c5.975,3.335,10.722,12.567,15.079,18.509c10.733,14.637,20.715,29.605,27.801,46.404
	c9.274,21.987,13.324,38.81,17.504,61.897c9.744,46.26,9.056,88.927,9.056,135.869c-3.907,1.271-8.995,2.342-13.588,1.51l0,0v-1.51
	h-1.512c0.419,6.172-1.599,11.982-1.515,18.119c-1.313-0.192-2.319,0.344-3.021,1.512c-0.504,0-1.007,0-1.511,0l0,0l0,0v1.512l0,0
	h1.511v1.509c-1.008,0-2.016,0-3.023,0c0-1.51,0-3.02,0-4.529c-10.432,0.817-5.497-13.029-10.562-18.114
	c-10.677-5.349-8.659-4.367-9.061-16.607l0,0v-1.51l0,0v-1.514c-1.009,0-2.018,0-3.026,0c0,1.008,0,2.016,0,3.023
	c-3.451,0.874-5.597,3.795-6.037,7.548c-2.217-4.22-3.806-8.466-9.073-7.549l0,0c-3.146-3.869-5.97-15.13-0.004-18.113
	c12.397,0-6.915-14.336-8.055-15.097c-3.391-2.264-8.938-13.226-10.063-16.604c-3.35-4.428-5.718-7.571-11.315-9.81
	c-13.785-5.514-36.69-1.138-29.435-25.246c3.608-11.988,3.362-20.677,0.342-33.381c-1.271-5.343-2.728-10.824-5.202-15.768
	c-2.157-4.309-5.312-0.879-5.703-1.466c-6.633-9.961-5.535-11.41-18.116-13.966c-0.591-5.244-3.079-9.151-6.036-13.587
	c-7.007-10.512-9.384-12.458-12.834-24.53c-2.115-7.406-10.914-7.885-14.338-14.719c0-6.343-13.59-7.607-13.59-12.079
	c0,0.267-18.155-7.214-19.339-7.641c-8.194-2.95-16.378-5.577-24.937-7.132c-10.333-1.877-20.679-3.646-31.2-3.342
	c-0.504-0.503-1.007-1.006-1.511-1.509l0,0c-1.014-3.132-2.077-4.533-6.042-4.533c-4.501-2.259-3.016-17.668-3.016-21.136
	c0-9.958,4.054-20.714,3.016-30.192l0,0c0-1.51,0-3.021,0-4.531c-9.508-3.888-13.077,6.029-21.135,6.042l0,0c0-1.51,0-3.021,0-4.531
	h-3.019v-1.512c-0.504,0-1.007,0-1.511,0v1.512c-0.504,0-1.008,0-1.512,0l0,0c-1.337-1.006-2.897-1.545-4.53-1.512
	c0-1.006,0-2.012,0-3.018c-1.007,0-2.014,0-3.021,0l0,0v-1.512l0,0c0.503,0,1.006,0,1.509,0l0,0
	c2.397-1.294,4.917-2.302,7.549-3.019c0.502,0,1.004,0,1.507,0c0.704-1.337,1.696-1.795,3.023-1.511l0,0h1.511v-1.51
	C269.323,129.428,291.913,124.168,317.1,124.168z"/>
<path fill="#52260E" stroke="#52260E" d="M392.579,297.771l1.512-9.06c12.577,2.562,11.478,4.011,18.116,13.967
	c1.236,1.853,2.371-4.702,4.523-0.377c3.847,3.837,5.227,12.781,6.376,17.614c1.994,8.375,4.538,18.208,2.684,26.838
	c-1.384,6.439-4.237,8.647-3.019,15.937c3.555,21.371,31.815,3.996,37.729,22.645c-7.396-0.482-6.501,9.889-7.557,15.095
	c-1.007,0-2.015,0-3.021,0c0,1.51,0,3.021,0,4.53c-1.008,0-2.017,0-3.024,0v-1.508h-1.509l0,0c0-2.479-1.634-5.513-3.025-7.551
	c-2.003,2.007-3.344,1.958-4.531,0c-0.502,0-1.005,0-1.507,0l0,0c-1.332-1.001-2.888-1.54-4.514-1.511
	c-3.551,9.812-4.812,17.45-10.57,27.18l0,0c-3.136,4.896-7.866,6.508-12.083,10.569l0,0l0,0v1.51c-0.503,0-1.007,0-1.51,0v-1.51
	c-1.009,0-2.018,0-3.026,0v1.51h-1.511c0-1.007,0-2.015,0-3.021l0,0l0,0c0-1.007,0-2.014,0-3.021l0,0l0,0
	c-0.338-11.706-0.935-25.748-5.31-36.682c-4.236-10.589-12.589-6.34-21.863-2.572l0,0v1.512c-2.516,0-5.031,0-7.547,0l0,0l0,0
	v-1.512c0.506,0,1.012,0,1.518,0v-1.51c5.867,0.015,9.449-6.423,9.056-12.081l0,0l0,0c-3.201-0.804-4.891-2.828-4.53-6.038
	c-12.277-0.741-23.81-3.02-36.232-3.02v-1.515h-1.512l0,0l0,0l0,0v-1.509c1.511,0,3.021,0,4.531,0v-1.51l0,0
	c21.298-2.298,56.954-11.459,51.324-39.259l0,0h1.512C394.277,313.663,391,305.663,392.579,297.771z"/>
<path fill="#9D5617" stroke="#9D5617" d="M371.445,472.882h1.512c-9.379,21.877-9.892,42.439-12.441,65.822
	c-2.461,22.571-23.342,35.292-32.852,53.442l0,0c-0.502,0-1.005,0-1.507,0l0,0v1.513h-1.513l0,0v1.512l0,0c-0.504,0-1.008,0-1.512,0
	l0,0v1.512h-1.514l0,0v1.513l0,0c-0.505,0-1.011,0-1.516,0v1.509c-13.676,4.155-26.173,13.032-40.251,16.942
	c-10.522,2.922-21.542,4.752-32.2,7.213l0,0v-1.513c3.527-0.318,5.714-1.282,4.53-3.022l0,0c-3.132-2.582-6.501-3.563-10.566-3.022
	v-1.514c0.504,0,1.009,0,1.514,0v-1.51c-1.008,0-2.015,0-3.023,0c1.769-0.622,3.295-1.634,4.533-3.021c1.004,0,1.507,0,1.507,0
	v-1.512l0,0c0-4.617,12.783-9.827,15.097-15.097c1.56-3.552,1.868-8.267,1.512-12.079c-4.85-2.85-10.311-5.136-16.611-4.534
	c-0.185-1.635,0.262-3.282,1.511-4.531c0-1.683-4.907-1.687-6.035-1.509v-1.51h-1.512l0,0v-1.515c-2.012,0-4.023,0-6.035,0
	c0-1.511,0-3.021,0-4.531h1.509v-1.509c2.141-0.317,13.588-1.664,13.588-4.531h1.512v-1.512l0,0c0.504,0,1.008,0,1.512,0l0,0v-1.51
	l0,0c0-1.51,0-3.019,0-4.528l0,0l0,0v-1.512c-0.504,0-1.008,0-1.512,0c-3.799-0.991-8.038-1.837-12.079-1.511l0,0l0,0
	c16.969-2.122,54.266,0.208,64.914-15.1l0,0c0.504,0,1.008,0,1.512,0v-1.514h1.507c-0.627-3.184,0.371-5.707,3.029-7.551
	c-1.769-0.622-3.295-1.635-4.533-3.021c-6.147-1.519-12.064-4.122-18.115-6.04c-0.503,0-1.006,0-1.509,0l0,0l0,0v-1.509l0,0
	c7.155-1.297,13.19-1.501,20.007-4.532c-0.519,0.23,17.741-9.569,17.741-10.574c2.001-0.501,4.042-1.011,6.043-1.511v-1.514
	c0.502,0,1.005,0,1.507,0c0.873-6.684,10.137-7.691,16.274-9.226c4.972-1.243,11.475-0.395,15.431-4.362
	C362.412,479.456,370.714,472.882,371.445,472.882z"/>
<path fill="#F0B53A" stroke="#F0B53A" d="M237.094,217.763L237.094,217.763c3.872-0.274,6.579,4.528,9.058,4.528
	c1.164,1.486,2.672,2.494,4.526,3.024c2.517-0.504,4.026-2.015,4.53-4.531c0.041,0,7.873,7.014,8.678,7.551
	c5.033,3.356,14.362,7.181,20.001,9.059c10.26,3.421,18.023,26.28,28.686,25.665v1.511l0,0c7.536,10.404-2.347,12.469-7.545,21.138
	c-2.742,4.566-4.53,9.723-4.53,15.094c0,7.55,5.612,9.606,7.171,15.851c1.449,5.81-6.86,5.506,1.884,11.326h-1.507v1.511l0,0
	c0.502,0,1.005,0,1.507,0c-2.394,0.996-4.405,2.513-6.037,4.535l0,0c-14.463-1.155-23.225,5.412-34.724,10.563
	c-10.398,0.917-18.214,16.208-28.684,13.591c-4.85-0.969-16.39-8.402-21.13-6.039c-2.669-0.33-5.665,0.724-9.056,0
	c0-1.008,0-2.016,0-3.023h-1.509v-1.511c-0.504,0-1.009,0-1.513,0c0,1.007,0,2.015,0,3.022c-2.981-0.693-5.423-3.083-6.045-6.045
	c0,0-0.502,0-1.514,0l0,0c2.333-9.693,5.428-26.998,2.186-36.734c-0.549,0.254-0.899,0.674-1.049,1.261
	c-0.739-1.474-3-14.339-5.668-14.339c-1.993,0-1.41-6.035-6.037-6.035c-4.024,0-6.045-3.568-7.456-6.792
	c-8.461-19.33-3.278-32.256,7.452-47.554c1.006-0.503,2.013-1.006,3.019-1.509l0,0l0,0
	C195.384,233.301,237.094,215.554,237.094,217.763z"/>
<path fill="#CB811F" stroke="#CB811F" d="M261.244,204.175c3.019,0,6.039,0,9.058,0c0,1.004,0,1.509,0,1.509
	c9.403-0.253,18.966-0.664,24.91,5.289c2.513,2.516,5.941,4.323,8.301,6.793c6.266,2.086,10.205,21.137,16.604,21.137v1.509h1.512
	v1.514l0,0v3.016c0,0.024-3.984-2.334-5.288-0.378c-2.999,4.5,1.128,13.159,1.892,17.736c0.606,3.635,0.513,7.643,0.377,11.321
	h-1.512v1.512c-0.504,0-1.008,0-1.512,0l0,0l0,0c0.316-3.845-0.721-7.399-3.021-10.57l0,0v-1.512
	c-7.427,0.424-20.253-18.741-25.289-23.777c-4.359-4.359-14.127-7.972-20.001-9.436c-3.171-1.056-10.541-9.06-12.075-9.06
	c-2.626,0-2.885,8.145-9.437,3.774c-3.729-2.487-2.835-6.894-8.678-6.791c0-2.015,0-4.03,0-6.044l0,0l0,0l0,0
	c4.113-1.812,6.094-5.995,6.042-10.569C249.19,201.404,255.215,202.966,261.244,204.175z M312.574,243.424c0-1.004,0-1.511,0-1.511
	l0,0C312.574,242.922,312.574,243.424,312.574,243.424z"/>
<path fill="#31140C" stroke="#31140C" d="M149.534,241.913h1.513c-4.203,31.602-16.609,62.095-16.609,95.103l0,0
	c-1.007,23.193-1.51,46.234-1.51,69.444h-1.51v-1.512c-1.008,0-2.015,0-3.023,0v-1.513c-1.006-1.009-2.014-2.016-3.023-3.021l0,0
	v1.51c-0.504,0-1.008,0-1.512,0c-0.268-5.823,3.276-39.339-6.04-36.226c-9.279,0-1.25-40.758-6.038-40.758
	c-2.396,0-5.046,2.719-9.058,1.509v-1.509l0,0c0.408-11,3.139-17.478,10.943-25.286c6.431-6.434,2.214-22.625,5.661-26.045
	c-2.035,1.02-3.405,0.461-4.53-1.511l0,0c1.011,0,1.513,0,1.513,0c2.208-6.973,10.208-13.607,13.588-19.627
	c1.314,0.193,2.32-0.343,3.022-1.512c0.504,0,1.007,0,1.511,0l0,0v-1.512l0,0h1.509v1.512l0,0c0.504,0,1.009,0,1.513,0l0,0v-1.512
	l0,0h1.513v-1.511l0,0c0.503,0,1.005,0,1.508,0l0,0C142.565,241.355,145.083,241.913,149.534,241.913z"/>
</svg>
