<?xml version="1.0" encoding="UTF-8" standalone="no"?>
<svg
   xmlns:dc="http://purl.org/dc/elements/1.1/"
   xmlns:cc="http://creativecommons.org/ns#"
   xmlns:rdf="http://www.w3.org/1999/02/22-rdf-syntax-ns#"
   xmlns:svg="http://www.w3.org/2000/svg"
   xmlns="http://www.w3.org/2000/svg"
   xml:space="preserve"
   enable-background="new 0 0 612 792"
   viewBox="0 0 8.5 11"
   height="11in"
   width="8.5in"
   y="0px"
   x="0px"
   id="Layer_1"
   version="1.1"><metadata
   id="metadata3921"><rdf:RDF><cc:Work
       rdf:about=""><dc:format>image/svg+xml</dc:format><dc:type
         rdf:resource="http://purl.org/dc/dcmitype/StillImage" /><dc:title></dc:title></cc:Work></rdf:RDF></metadata><defs
   id="defs3919" />
<path
   style="fill:#a75d14;stroke:#a75d14;stroke-width:0.0171201"
   id="path3820"
   d="M 4.9825751,5.2677487 C 5.1562078,5.3763068 4.8712795,5.4567872 4.8792225,5.6037129 h -0.025891 v 0.025891 c -0.00863,0 -0.017261,0 -0.025891,0 v 0 0 0.025891 c -0.00863,0 -0.017221,0 -0.025852,0 -0.2488413,0.021009 -0.5014159,0.061993 -0.7494841,0.1033058 -0.030617,-0.010466 -0.2068458,-0.029249 -0.2068458,-0.07754 0,-0.099447 0.4964643,-0.076868 0.1550055,-0.3101125 v 0 0 -0.025891 c -0.019993,-0.012027 -0.02917,-0.029249 -0.02589,-0.051719 v 0 c 0.00863,0 0.017261,0 0.025891,0 v 0.025852 0 0 c 0.00863,0 0.017221,0 0.025812,0 0.3198046,-2.34e-5 0.639469,-0.051649 0.9564818,-0.051649 z" />
<path
   style="fill:#9e5c19;stroke:#9e5c19;stroke-width:0.0171201"
   id="path3822"
   d="m 2.0105102,2.218144 h 0.025852 C 1.999107,2.2988821 1.9653979,2.4087914 1.8812704,2.4248492 v 0.02593 0 0.025813 0 c 0,0.01726 0,0.034482 0,0.051754 0.051668,0 0.1033526,0 0.1550211,0 v 0.025852 c -0.00863,0 -0.01726,0 -0.025891,0 v 0.02593 c -0.00863,0 -0.01726,0 -0.025891,0 v 0 0 c -0.017221,0.00859 -0.034443,0.017222 -0.051668,0.025852 -0.2099972,0.059131 -0.4763334,0.2348845 -0.5686111,0.4393013 v 0 0 0.025852 0 0 c -0.021986,0.031202 -0.030694,0.065692 -0.025852,0.1034072 -0.022493,-0.00312 -0.039703,0.00586 -0.051755,0.025852 -0.00859,0 -0.017261,0 -0.025852,0 0,-0.051684 0,-0.1033526 0,-0.1550211 h -0.02585 v 0 -0.025891 0 C 1.230898,2.9031141 1.2716286,2.748093 1.3240314,2.6432993 1.4074054,2.4766371 1.8218156,2.2182088 2.0105144,2.2182088 Z" />
<path
   style="fill:#894513;stroke:#894513;stroke-width:0.0171201"
   id="path3824"
   d="m 3.4577747,7.0251597 0.02593,0.025852 c -0.00711,-0.031756 7.811e-4,-0.0579 0.025852,-0.077571 0.029249,0.1319274 0.02058,0.2683063 0.077637,0.3876847 v 0 0.025887 0 0 c 0.00859,0 0.017221,0 0.025812,0 0.090977,0.028796 0.2177684,0.1033369 0.3101476,0.1033369 0.021166,0.023778 0.047272,0.041122 0.077556,0.051788 -0.045436,0.031569 -0.06249,0.074781 -0.051755,0.1292568 h -0.025813 v 0.025887 c -0.00863,0 -0.01726,0 -0.025891,0 v 0 C 3.714598,7.9593042 3.0766361,7.9194483 2.7858851,7.9557775 v 0 C 2.6676345,7.9525777 2.5713697,7.8889402 2.4498505,7.9040918 v -0.025902 c -0.00863,0 -0.01726,0 -0.025852,0 v 0 0 -0.025887 c 0.025852,0 0.0517,0 0.077552,0 0,-0.017257 0,-0.034533 0,-0.051771 h -0.025891 v 0 -0.025817 0 c 0.077743,0.00779 0.1587739,-4.295e-4 0.2326976,-0.025852 v 0 c 0.00859,0 0.017221,0 0.025812,0 v -0.025938 c 0.00863,0 0.017221,0 0.025852,0 v -0.025852 0 0 c 0,-0.017257 0,-0.034514 0,-0.051754 v 0 c -0.017261,-0.017241 -0.034482,-0.034498 -0.051668,-0.051754 v 0 c -0.00863,0 -0.017261,0 -0.02593,0 -0.031319,-0.053535 -0.07062,-0.1341706 -0.077485,-0.2067084 -0.017261,0 -0.034521,0 -0.051785,0 0,-0.017257 0,-0.034498 0,-0.051737 0.04453,-0.00564 0.079009,0.012551 0.1035089,0.051737 v 0 c 0.00863,0 0.01726,0 0.025891,0 0.071616,0.1116572 0.3129202,0.050505 0.4250242,0.00567 C 3.2106243,7.3513151 3.3291795,7.2884156 3.3975931,7.1972511 3.4925888,7.0706308 3.3545002,7.0738665 3.3545002,6.9990689 v 0 c 0.035615,-0.027015 0.103337,-0.042886 0.103337,0.02609 z" />
<path
   style="fill:#803a12;stroke:#803a12;stroke-width:0.0171201"
   id="path3826"
   d="m 2.1915042,7.7229753 c 0.034873,0.028675 0.08091,0.036567 0.1292045,0.025902 v -0.025902 0 c 0.050403,0.020803 0.1045162,0.038879 0.155021,0.051771 v 0.025887 0 h 0.02593 c 0,0.017241 0,0.034498 0,0.05172 -0.025852,0 -0.051704,0 -0.077556,0 v 0.025832 c -0.034482,0 -0.068909,0 -0.1033721,0 v 0 -0.025832 c -0.086147,0 -0.1722973,0 -0.258444,0 V 7.8265014 H 2.036397 c 0,-0.025867 0,-0.05172 0,-0.077571 H 2.010506 v 0 C 2.069294,7.6972624 2.126683,7.6905844 2.1915,7.7229774 Z" />
<path
   style="fill:#481c0c;stroke:#481c0c;stroke-width:0.0171201"
   id="path3828"
   d="m 4.414085,0.79667664 -0.02593,-0.0775008 c 0.13696,0.0233915 0.3263929,0.0144493 0.4394028,0.0775515 0.2385865,0.0477321 0.4797582,0.0786486 0.7049735,0.17573769 C 5.6717682,1.0324713 6.1240657,1.1809548 6.1714541,1.3395023 6.0628257,1.3484843 5.980959,1.3143538 5.8869006,1.2877833 v 0.025852 c 0.00863,0 0.01726,0 0.025891,0 v 0.025891 0 0 c 0.00863,0 0.01726,0 0.02593,0 v 0.025852 c 0.00863,0 0.01726,0 0.025891,0 0.1333321,0.135351 0.032803,0.2192053 0.051567,0.3877889 v 0 C 5.8135781,1.7700367 5.6638992,1.6440579 5.4929024,1.5463872 5.2595722,1.4131097 5.0039008,1.28421 4.7531264,1.1878085 4.7203232,1.1751952 4.5171916,1.1306613 4.5171916,1.0811834 4.5171916,1.0253564 4.4536946,0.99062 4.413839,0.9777956 4.420949,0.946008 4.4130579,0.9198788 4.38787,0.9002399 4.3878504,0.8210602 4.454843,0.9195704 4.414073,0.79671542 Z" />
<path
   style="fill:#773712;stroke:#773712;stroke-width:0.0171201"
   id="path3830"
   d="m 3.1218767,1.0292728 c 0.034053,0.015347 0.062662,0.022806 0.1033878,0.025891 0,0.025852 0,0.051704 0,0.077556 v 0 c 0.017768,0.1622104 -0.051668,0.3463558 -0.051668,0.5168216 0,0.059459 -0.025383,0.3230892 0.051668,0.3618513 0.066344,0 0.1153218,0.04321 0.129224,0.1034385 C 3.1840578,2.1052242 2.843712,1.9592432 2.708275,2.0114233 v 0 c -0.00863,0 -0.01726,0 -0.02593,0 -0.012027,0.019994 -0.029249,0.029171 -0.051719,0.025852 -0.00312,-0.022494 0.0059,-0.039703 0.025891,-0.051719 v -0.025852 0 0 c 0.00863,0 0.017221,0 0.025813,0 C 2.7803594,1.7157794 2.8104053,1.4227518 2.8632883,1.1585204 2.9941914,1.1582627 2.97392,1.0293161 3.1218533,1.0293161 Z" />
<path
   style="fill:#b06219;stroke:#b06219;stroke-width:0.0171201"
   id="path3832"
   d="m 4.2848298,5.0093359 c -0.1190199,0.00664 -0.2110751,0.068566 -0.3360697,0.051719 v 0.025852 c -0.00863,0 -0.017261,0 -0.025891,0 v 0 0 -0.025852 C 3.8079571,5.0818699 3.7001879,5.1156329 3.586885,5.1385909 3.576146,5.0841339 3.593175,5.0408889 3.638589,5.0093004 v 0 -0.025891 0 h 0.025852 v -0.025891 c 0.1392171,-0.053843 0.553182,-0.1458637 0.6203968,0.051806 z" />
<path
   style="fill:#ba6c1c;stroke:#ba6c1c;stroke-width:0.0171201"
   id="path3834"
   d="m 2.5533203,7.0768797 v 0 c 0,0.017241 0,0.034498 0,0.05172 h -0.02593 v 0 c 0.021244,0.023692 0.047337,0.04102 0.077571,0.051754 -0.025852,0 -0.051719,0 -0.077571,0 v 0.025852 0 c -0.00859,0 -0.017221,0 -0.025813,0 0.036942,0.032236 0.055418,0.080003 0.051755,0.1292743 C 2.5366963,7.33904 2.5015773,7.3352781 2.5015773,7.309628 2.4815443,7.297608 2.4723283,7.280371 2.4756083,7.257857 2.4006023,7.239675 2.2980893,7.19797 2.2688986,7.1286003 h -0.02593 v 0 0 -0.025852 c -0.00859,0 -0.017221,0 -0.025813,0 v -0.025887 c -0.039375,-0.03638 -0.0805,-0.1060932 -0.1292399,-0.1550738 0.07954,0 0.1065547,-0.3100966 0.1550718,-0.3100966 0.091715,2.07e-5 0.035537,0.4651876 0.310339,0.4651876 z" />
<path
   style="fill:#a76119;stroke:#a76119;stroke-width:0.0171201"
   id="path3836"
   d="m 1.4936183,5.2935966 v -0.02593 c 0.017261,0 0.034482,0 0.051755,0 -0.058327,0.09498 -0.1462074,0.1625188 -0.1292747,0.2842606 h 0.025891 v 0.025891 c 0.022649,-0.00426 0.1436221,0.011442 0.1033878,0.051719 -0.034482,-0.012184 -0.06033,-0.00352 -0.077606,0.025852 v 0 c 0.029445,0.06115 -0.1543025,0.025852 -0.232643,0.025852 v 0.02593 h -0.025852 v 0 0 C 1.1934601,5.6522495 1.1398544,5.6413269 1.0800363,5.6554165 1.0581674,5.7265012 1.0450463,5.8105587 1.0541846,5.8880946 1.01529,5.833755 0.99779132,5.7726909 1.0024457,5.7071553 H 0.9765941 v 0 -0.025891 0 0 H 1.0024457 C 1.0464601,5.3734444 1.1790893,5.2936123 1.493638,5.2936123 Z" />
<path
   style="fill:#d2801b;stroke:#d2801b;stroke-width:0.0171201"
   id="path3838"
   d="m 3.7937897,5.1902792 c 0.043437,-0.027219 0.1142089,-0.04114 0.1550055,0 0,0.025852 0,0.051668 0,0.077485 0.00863,0 0.017299,0 0.02593,0 v 0 c -0.00711,0.031788 7.81e-4,0.057933 0.025891,0.077606 v 0.025891 0 0 C 4.3421291,5.6045368 3.845575,5.5819067 3.845575,5.681358 c 0,0.078048 0.2068107,0.025656 0.2068107,0.077602 C 3.8464146,5.771886 3.657872,5.711267 3.4579618,5.784851 c -0.02507,0 0.019096,-0.08995 0.025812,-0.1034736 v 0 C 3.4883788,5.6185286 3.4779564,5.5604596 3.4579618,5.5004185 3.3815001,5.2711969 3.6118859,5.2507029 3.7937702,5.1902714 Z" />
<path
   style="fill:#9b4e11;stroke:#9b4e11;stroke-width:0.0171201"
   id="path3840"
   d="m 2.0363621,5.5262083 c 0.034482,0 0.068976,0 0.1034736,0 v 0 c 0,0.034521 0,0.069011 0,0.1035244 -0.017261,0 -0.034482,0 -0.051719,0 C 2.0452467,5.6797919 1.9717991,5.6854079 1.907154,5.7331908 1.833058,5.7226079 1.7600092,5.7181952 1.7004485,5.6814207 1.6637406,5.6079578 1.9673822,5.5291371 2.0363933,5.5263957 v -1.796e-4 z" />
<path
   style="fill:#a55d1e;stroke:#a55d1e;stroke-width:0.0171201"
   id="path3842"
   d="M 1.2351743,7.2836224 1.1059699,6.7409146 v 0 0 c 0.017261,0.017221 0.034521,0.034447 0.051786,0.051686 v 0.025918 0 0 c 0.017222,-0.017276 0.034443,-0.034533 0.051704,-0.051754 v 0 -0.025832 0 c 0.020034,0.011985 0.02921,0.029191 0.025891,0.051686 0.032647,0.016745 0.063239,0.024653 0.103454,0.025918 v -0.025918 h -0.025852 c 0,-0.017221 0,-0.034462 0,-0.051686 0.1296691,0.1296164 0.2683239,0.278647 0.4135197,0.3876679 0.1091947,0.081868 0.1609491,0.237661 0.2585847,0.2843817 0,0.017241 0,0.025887 0,0.025887 0.00859,0 0.017222,0 0.025813,0 0.00863,0.00863 0.017261,0.017241 0.02593,0.025868 v 0 c 0,0.017257 0,0.025867 0,0.025867 0.064954,0.019943 0.1094992,0.096506 0.1551226,0.1292396 v 0.025817 0 0 c 0.01726,0.017241 0.034482,0.034498 0.051688,0.05177 v 0 c 0.022923,0.017221 0.049645,0.026433 0.077622,0.025887 v 0.025887 c -0.1246199,0.017721 -0.1930804,-0.1029605 -0.3101829,0 v 0 h 0.02593 c 0,0.025867 0,0.05172 0,0.077572 h 0.025852 v 0.025852 c 0.086147,0 0.1722973,0 0.2584596,0 v 0.025916 c -0.1209892,0.031331 -0.2418367,0.060931 -0.323141,0.1421994 -0.056823,0.056805 0.2462874,0.5049747 0.2456743,0.6332047 h 0.025852 v 0.02589 0 c 0.00859,0 0.017221,0 0.025852,0 v 0 0.02589 0 c 0.00863,0.00863 0.017221,0.017279 0.025852,0.025898 -0.00859,0 -0.017221,0 -0.025852,0 0,0.017238 0,0.034475 0,0.051722 -0.017221,0 -0.034482,0 -0.0517,0 v -0.025857 c -0.00863,0 -0.01726,0 -0.025891,0 v 0.025848 h -0.025891 c -0.01726,-0.017238 -0.034521,-0.034475 -0.051785,-0.051722 v 0 c -0.00863,0 -0.017221,0 -0.025852,0 v 0 -0.025898 H 2.0885581 C 2.0764917,8.682831 2.0595041,8.6749685 2.0367884,8.6798306 1.887429,8.4929533 1.6737219,8.3604604 1.5199114,8.1758542 1.3319859,7.9502799 1.3041463,7.5592395 1.2351548,7.2836232 Z" />
<path
   style="fill:#763611;stroke:#763611;stroke-width:0.0171201"
   id="path3844"
   d="m 4.1039217,4.6474847 v 0 c 0.1485504,0.037138 0.2972374,0.083718 0.4393716,0.1292591 v 0.025852 c -0.025852,0 -0.051704,0 -0.07754,0 v 0.025891 c -0.054117,7.81e-4 -0.102189,0.025891 -0.1551422,0.025891 v 0 C 4.2815572,4.8834312 4.4327123,4.9896931 4.2847986,5.0094022 4.217377,4.8119717 3.8035526,4.9040268 3.6643315,4.9578158 v 0.025852 H 3.638519 v 0 0.025852 0 c -0.045456,0.031592 -0.06249,0.07485 -0.051755,0.1293451 0.1133536,-0.022923 0.2210877,-0.056703 0.3360151,-0.077556 v 0.025852 0 c -0.00313,0.022494 0.00586,0.039735 0.025891,0.051755 v 0.025812 0 0 c 0.022025,0.031202 0.030733,0.065692 0.02593,0.1034073 -0.00863,0 -0.017261,0 -0.02593,0 -0.00117,-0.040234 -0.00918,-0.070862 -0.025891,-0.1035439 -0.1579499,0.00582 -0.3507217,0.08904 -0.4910713,0.1551266 -0.1520806,0 -0.212102,0.1860432 -0.3877031,0.1551265 -0.1037313,-0.2740254 0.014215,-0.510796 0.155025,-0.7496403 0.00863,0 0.01726,0 0.02593,0 v -0.025852 c 0.079747,-0.010309 0.1413963,-0.063294 0.2211229,-0.074682 0.1914558,-0.027375 0.4583582,0.022766 0.6578233,0.022766 z" />
<path
   style="fill:#471b09;stroke:#471b09;stroke-width:0.0171201"
   id="path3846"
   d="m 2.2689699,5.2935966 c -0.00863,0 -0.017221,0 -0.025852,0 0,0.017221 0,0.025813 0,0.025813 -0.1213629,0 -0.2639736,0.05985 -0.3877382,0.077517 v -0.025852 c -0.017221,0 -0.025891,0 -0.025891,0 v 0 c -0.00859,-0.00863 -0.017222,-0.01726 -0.025813,-0.025891 v 0 C 1.802114,5.2272254 1.6960439,5.1979996 1.5968308,5.2159787 c 0,-0.017222 0,-0.034482 0,-0.051739 0.01726,0 0.034482,0 0.051719,0 -0.045057,-0.012301 -0.088201,-0.029562 -0.1292203,-0.051755 v 0 0 C 1.7061616,5.0591569 2.2689308,4.977872 2.2689308,5.2935805 Z" />
<path
   style="fill:#d07d20;stroke:#d07d20;stroke-width:0.0171201"
   id="path3848"
   d="m 2.0881164,4.4924441 c 0.00859,0 0.017183,0 0.025813,0 0.00863,0.00863 0.01726,0.017222 0.02593,0.025852 0.02593,0.037802 0.06377,0.06723 0.1034737,0.077586 v 0 0.025891 0 c 0.01726,0.01726 0.03456,0.034482 0.051805,0.051755 v 0.025891 0 0 c 0.00859,0 0.017183,0 0.025813,0 C 2.3587521,4.786592 2.4428953,4.8639951 2.45019,4.9578818 2.3521409,4.8966266 2.2459806,4.7233686 2.1314125,4.7138323 2.0159697,4.7042258 1.8924002,4.7348419 1.7782071,4.7511652 v 0 0 0 -0.025852 h -0.025852 v -0.025852 c -0.017261,0 -0.034521,0 -0.051774,0 v -0.02593 h 0.025891 c 0.00117,-0.040199 0.00918,-0.070792 0.025891,-0.1034385 -0.025891,0 -0.051774,0 -0.077657,0 v 0 c 0.1222025,-0.07836 0.272432,-0.081972 0.4134338,-0.077626 z" />
<path
   style="fill:#bf731b;stroke:#bf731b;stroke-width:0.0171201"
   id="path3850"
   d="M 1.622893,5.2160606 V 5.190209 C 1.71469,5.2013 1.8023445,5.241912 1.8037855,5.3453161 v 0 c 0.00863,0.00859 0.017261,0.017221 0.025891,0.025852 v 0 c 0,0 0,0.00859 0,0.025852 0.00863,0 0.01726,0 0.025891,0 0,0.037802 0.1567004,0.029562 0.180873,0.025891 -0.021869,0.04198 -0.078103,0.087674 -0.1292045,0.1034385 v 0 0.025891 c -0.040664,0.0148 -0.2396135,0.06379 -0.2067949,0.1291536 l 0.025852,0.025891 c -0.077896,0.00746 -0.1582077,-0.00875 -0.2326429,-0.025891 -0.00863,-0.00863 -0.017261,-0.017222 -0.025891,-0.025852 v 0 c 0.017261,-0.029406 0.04314,-0.038036 0.077606,-0.025852 0.040246,-0.04032 -0.080722,-0.055949 -0.1033916,-0.051688 v -0.02589 H 1.4160824 C 1.3991339,5.4303535 1.4870106,5.3628302 1.5453571,5.2678463 v 0 -0.025891 c 0.00859,0 0.017222,0 0.025852,0 v -0.025812 0 c 0.00863,0 0.01726,0 0.025891,0 0.01726,-4.3e-5 0.025852,-4.3e-5 0.025852,-4.3e-5 z" />
<path
   style="fill:#e29427;stroke:#e29427;stroke-width:0.0171201"
   id="path3852"
   d="m 3.2510656,4.4924441 c 0.038388,-0.00641 0.065176,-0.00547 0.025812,0.025852 v 0 0.02593 c -0.01726,0 -0.034521,0 -0.051755,0 v 0.025852 0 c 0,0.025852 0,0.051668 0,0.077505 v 0 0 0.025891 c -0.07156,0.1185738 -0.1905445,0.2703107 -0.2067937,0.413554 -0.1495071,0.04446 -0.1615973,0.3323364 -0.1551226,0.4652546 -0.017222,-0.00863 -0.034482,-0.0173 -0.051688,-0.02593 C 2.7399923,5.4672919 2.6392562,5.4574979 2.5918676,5.4100235 2.5264688,5.3445387 2.5679293,5.1962266 2.5401483,5.1127862 2.5287064,5.0784212 2.4684311,4.9931648 2.4497217,4.9576401 2.4086322,4.8796238 2.358057,4.7857372 2.3205641,4.699161 c -0.00863,0 -0.017261,0 -0.02593,0 v 0 0 -0.02593 C 2.2773731,4.65601 2.2601521,4.638749 2.2429151,4.621512 v 0 -0.025891 0 0 c 0,-0.01726 0,-0.034482 0,-0.051739 0.00859,0 0.017221,0 0.025813,0 v 0.02593 h 0.025891 c 0,0.017222 0,0.034482 0,0.051719 C 2.4224879,4.648828 2.5242863,4.607199 2.6563688,4.67325 2.8948494,4.9112709 3.0548182,4.4924949 3.25105,4.4924949 Z" />
<path
   style="fill:#d78a2a;stroke:#d78a2a;stroke-width:0.0171201"
   id="path3854"
   d="m 2.1915042,7.9038665 c 0.070757,-0.017651 0.1555873,-0.038333 0.2325258,-0.025887 0.00863,0 0.01726,0 0.025891,0 v 0.025887 c 0.1424231,-0.017788 0.3979071,0.039702 0.5427944,0.077571 -0.083374,0.1974977 -0.4527778,0.052405 -0.5427242,0.2325594 0,0.094143 0.1651041,0.1671437 0.2068263,0.2325769 -0.1508973,0 -0.2703077,-0.022993 -0.2842606,0.1550565 h -0.025852 c 0,0.051688 0,0.1033541 0,0.1550399 -0.00863,-0.00861 -0.017261,-0.017238 -0.025852,-0.025848 v 0 0 c -0.00863,-0.00861 -0.01726,-0.017238 -0.025891,-0.025848 v 0 -0.02589 0 c -0.00859,0 -0.01726,0 -0.025852,0 v 0 -0.025865 H 2.2432587 C 2.2440397,8.4648925 1.7508011,7.9038667 2.1915238,7.9038667 Z" />
<path
   style="fill:#ae641d;stroke:#ae641d;stroke-width:0.0171201"
   id="path3856"
   d="m 2.9150857,5.2160606 c 0.01316,-0.062212 0.05011,-0.1134199 0.1034034,-0.1292551 0,0.1305048 -0.017183,0.2741074 0.025852,0.3877187 0.1804316,0.031788 0.2559994,-0.1890073 0.4136056,-0.1551422 -0.06379,0.1094641 0.034795,0.2388091 0.025852,0.3618513 v 0 c -0.00672,0.013512 -0.050884,0.1035049 -0.025852,0.1035049 h 0.025852 c -0.078,0.193545 -0.01894,0.328775 -0.00644,0.5039659 0.016285,0.2283993 0.011013,0.4588531 0.032374,0.684907 -0.025032,0.019639 -0.033037,0.045779 -0.02593,0.077588 C 3.4085237,6.8640253 2.779411,7.0467191 2.6568647,7.154536 v 0 0.025902 0 c -0.00863,0 -0.01726,0 -0.025891,0 -0.031241,0.021947 -0.065692,0.030612 -0.1033721,0.025817 v 0 -0.025817 c 0.025852,0 0.051719,0 0.077572,0 C 2.5748696,7.169754 2.5487806,7.152396 2.5276016,7.12865 v 0 h 0.025891 c 0,-0.017257 0,-0.034514 0,-0.051754 v 0 0 c 0.00863,0 0.017261,0 0.025891,0 C 2.7680427,6.8046012 2.7825424,6.4447538 2.8130179,6.1094401 2.8359799,5.8571936 2.8002872,5.4455209 2.9150896,5.2160606 Z" />
<path
   style="fill:#512410;stroke:#512410;stroke-width:0.0171201"
   id="path3858"
   d="m 1.0025782,4.363224 v 0 0 0.025891 0 0 c 0.034443,0.054668 0.052868,0.1170517 0.051755,0.1809081 0.00863,0 0.017261,0 0.025852,0 0.025266,0.2538242 0.2026361,0.3441845 0.4394575,0.3360189 v 0.025891 0 0.025891 0 0 0 0.025852 c -0.00863,0 -0.017221,0 -0.025852,0 v 0.025852 c -0.00863,0 -0.017221,0 -0.025852,0 v 0 0 0.025852 0 c 0,0.025891 0,0.051755 0,0.077625 v 0 0 0.025852 0 h 0.025852 V 5.113005 c 0.00863,0 0.017222,0 0.025852,0 v 0 0 c 0.052661,0.020619 0.1260374,0.033233 0.1033526,0.0517 v 0 0 0.025891 0 c -0.00859,0.00863 -0.017222,0.017261 -0.025813,0.025891 v 0 c -0.00859,0 -0.017261,0 -0.025852,0 v 0 0.025891 c -0.00863,0 -0.017221,0 -0.025852,0 v 0.025891 0 c -0.017221,0 -0.034482,0 -0.051735,0 v 0.025852 c -0.3144823,0 -0.4471779,0.080086 -0.4910752,0.3877343 H 0.9767774 v 0 c 0,-0.4405861 0.006799,-0.87838 0.0258517,-1.3186067 z" />
<path
   style="fill:#b76d1e;stroke:#b76d1e;stroke-width:0.0171201"
   id="path3860"
   d="m 1.2868779,4.0789282 h 0.025852 c -0.018862,0.2298195 0.086217,0.5541779 0.3618199,0.4910361 v 0.025891 c 0,0 0.00863,0 0.025813,0 v -0.025891 c 0.017261,0 0.034482,0 0.051755,0 -0.016714,0.032686 -0.024602,0.063294 -0.025852,0.1035089 h -0.025891 v 0.025891 c 0.017261,0 0.034482,0 0.051755,0 v 0.025852 h 0.02589 v 0.02593 c -0.044495,-0.00563 -0.078961,0.012535 -0.1034737,0.051684 -0.041996,0.085089 -0.1210584,0.079848 -0.2068145,0.103458 v 0 C 1.2473313,4.9007425 1.1297329,4.8188368 1.0867611,4.603724 1.063018,4.484911 1.0604797,4.2613553 1.157533,4.1825345 c 0,0.017261 0,0.034521 0,0.05177 C 1.18358,4.2132175 1.2822036,4.0789596 1.286878,4.0789596 Z" />
<path
   style="fill:#df992f;stroke:#df992f;stroke-width:0.0171201"
   id="path3862"
   d="m 1.9071537,2.6057924 h 0.025891 C 1.7880205,2.8123297 1.7284051,2.8868899 1.7521521,3.1484658 c 0.028234,0.2820543 0.1146189,0.3082458 0.2778407,0.4717098 0.010817,-0.010739 0.021595,-0.021517 0.032374,-0.032335 0.00731,0 0.055398,0.2658754 0.071132,0.2971866 0.00273,-0.010036 0.00859,-0.017221 0.018002,-0.021556 0.041379,0.1238466 -0.048638,0.2299757 0.046686,0.3252331 C 2.1851433,4.1756615 2.1389845,4.485684 2.139996,4.5182839 1.9866501,4.4905576 1.8386621,4.4826303 1.7005579,4.5699836 1.4033323,4.6810762 1.3422134,4.3163351 1.2870186,4.1048657 v 0 c 0.00863,-0.00863 0.01726,-0.017261 0.025891,-0.02593 v 0 c -0.00313,-0.1811501 0.051668,-0.3584265 0.051668,-0.5499525 0,-0.152639 0,-0.3052858 0,-0.4579287 v 0 -0.025891 0 0 C 1.4783061,2.7929487 1.7283814,2.784748 1.9071651,2.6057925 Z" />
<path
   style="fill:#904813;stroke:#904813;stroke-width:0.0171201"
   id="path3864"
   d="m 2.4498779,4.9576167 v 0 c 0,0.04323 0.017885,0.1476092 0,0.1809588 0,0.076458 -0.1475037,0.094914 -0.180908,0.1550563 v 0 c 0,-0.3154703 -0.5628044,-0.2341699 -0.7495154,-0.1808222 -0.00863,0 -0.017221,0 -0.025852,0 v 0.025891 h -0.025852 v 0 -0.025891 0 0 c 0,-0.025852 0,-0.051719 0,-0.077586 v 0 -0.025852 0 0 c 0.00859,0 0.017261,0 0.025852,0 v -0.025891 c 0.00863,0 0.017222,0 0.025852,0 v -0.025891 0 0 0 -0.025852 0 -0.025891 c -0.01726,0 -0.034482,0 -0.051703,0 v 0 0 C 1.5534885,4.8822986 1.632551,4.8876096 1.6744762,4.802494 1.6990002,4.763322 1.7334712,4.745105 1.777985,4.750739 v 0 C 1.8921587,4.734415 2.0157671,4.703796 2.1311904,4.713406 2.2636986,4.724458 2.3200063,4.9576236 2.4498785,4.9576236 Z" />
<path
   style="fill:#e79e33;stroke:#e79e33;stroke-width:0.0171201"
   id="path3866"
   d="m 2.6049537,8.4465909 c 0.017221,0 0.034404,0 0.051633,0 0.080515,0.080313 0.4287926,0.03652 0.5427945,0.1034397 0.00609,0.065261 7.81e-4,0.145983 -0.025852,0.2067938 -0.039613,0.09024 -0.258408,0.1793847 -0.258408,0.2584796 C 2.7704873,8.9640804 2.6227102,9.0934739 2.5016011,8.911915 2.3665234,8.7769404 2.346494,8.7933071 2.346494,8.6017164 H 2.372346 C 2.3871066,8.411854 2.4851135,8.5067343 2.6049379,8.4465909 Z" />
<path
   style="fill:#7b3d0f;stroke:#7b3d0f;stroke-width:0.0171201"
   id="path3868"
   d="M 3.7420197,2.166456 3.7162067,2.140604 c 0.2569562,0.046721 0.541662,0.08988 0.7689003,0.2261409 0.095769,0.057421 0.1900148,0.079434 0.2907666,0.1550211 0.1040399,0.078067 0.1366007,0.1763352 0.2520084,0.2455181 0.1462736,0.087689 0.085959,0.2713738 0.2016754,0.3869845 0.082706,0.08264 0.2182993,0.2444403 0.2182993,0.3689547 0,0.090856 -0.038856,0.1799669 -0.038856,0.271405 0,0.098253 0.041722,0.2024956 0.038856,0.3101125 h -0.025891 v 0 -0.02593 h -0.025891 c 0,-0.01726 0,-0.034482 0,-0.051719 h -0.025813 v 0 -0.025891 h -0.02593 v 0 -0.025852 0 C 5.1733005,4.0173251 4.7498188,3.6972663 4.6351491,3.582749 4.3920444,3.3399684 4.5385055,2.9596812 4.2071297,2.7347586 v 0 -0.025891 H 4.1811609 V 2.6830163 C 4.1133286,2.5966622 3.9946176,2.3535771 3.8968962,2.3211334 3.8592117,2.2817584 3.7420117,2.2240954 3.7420117,2.1664521 Z" />
<path
   style="fill:#c26f1b;stroke:#c26f1b;stroke-width:0.0171201"
   id="path3870"
   d="m 3.7937897,4.311536 c 0.032999,-0.00543 0.069851,0 0.1034073,0 C 3.837788,4.351462 3.851983,4.379571 3.845478,4.4407756 v 0 0 0.025891 0 C 3.920292,4.5158036 4.0890084,4.5619936 4.1038517,4.647559 3.8788784,4.707053 3.6669638,4.593032 3.446251,4.624597 3.366524,4.636 3.3048744,4.688968 3.2251126,4.69929 v 0.025852 c -0.00863,0 -0.01726,0 -0.025891,0 v 0 c -0.00313,-0.022494 0.00589,-0.039735 0.025891,-0.05177 v -0.025812 0 0 c 0,-0.025852 0,-0.051688 0,-0.077521 v 0 -0.025891 c 0.017261,0 0.034482,0 0.051704,0 v -0.025891 0 c 0.00863,-0.00863 0.017221,-0.017221 0.025852,-0.025852 v 0 C 3.3330896,4.478776 3.3487726,4.460656 3.3802246,4.440686 3.5258656,4.368129 3.639473,4.362822 3.7938107,4.3115285 Z" />
<path
   style="fill:#4b1e0f;stroke:#4b1e0f;stroke-width:0.0171201"
   id="path3872"
   d="m 3.0959937,6.9993087 c 0.086131,0 0.1722778,0 0.2584089,0 0,0.047149 0.077485,0.044136 0.077485,0.1292738 C 3.3986946,7.2616913 3.2206095,7.3475486 3.107498,7.39278 2.9953785,7.4376181 2.7540193,7.4987189 2.6823684,7.3871117 c -0.00863,0 -0.017221,0 -0.025852,0 v 0 C 2.6336719,7.3698706 2.6069883,7.3606425 2.5790511,7.3612093 V 7.335322 c -0.017221,0 -0.02593,0 -0.02593,0 v 0 0 -0.025852 h -0.025852 v 0 -0.025902 h -0.025852 v 0 0 c 0,-0.025852 0,-0.051719 0,-0.077554 0.00863,0 0.01726,0 0.025852,0 0.037684,0.00481 0.072162,-0.00391 0.1033722,-0.025867 0.00863,0 0.01726,0 0.025891,0 v 0 -0.025922 0 C 2.7846394,7.0417131 2.9286208,7.016067 3.0960054,6.9993067 Z" />
<path
   style="fill:#8f4d19;stroke:#8f4d19;stroke-width:0.0171201"
   id="path3874"
   d="m 2.0881164,8.7309047 -0.051755,-0.05163 c 0.016636,-0.00357 0.051785,2.02e-4 0.051785,0.02589 h 0.025813 v 0.02584 0 c 0.00863,0 0.01726,0 0.025891,0 v 0 c 0.0173,0.017238 0.03456,0.0345 0.051836,0.051755 h 0.025852 v -0.025915 c 0.00863,0 0.017221,0 0.025852,0 v 0.025915 c 0.01726,0 0.034521,0 0.05179,0 0,-0.017254 0,-0.034517 0,-0.051755 0.00863,0 0.01726,0 0.025852,0 v 0 0 c 0.00859,0.00861 0.017261,0.017238 0.025852,0.025848 0.038036,0.071752 0.1452818,0.1700876 0.2197366,0.2197362 0.1352144,0.090189 0.2189517,-0.00731 0.3488746,0.038756 v 0.025848 c 0,0 -0.00859,0 -0.025891,0 -0.021127,0.023812 -0.047252,0.041141 -0.077552,0.051771 0.017261,0 0.034482,0 0.051755,0 v 0.02589 c -0.00863,0 -0.01726,0 -0.025891,0 v 0.02589 c 0.069593,-0.00925 0.1272871,0.00756 0.1809237,0.051755 v 0 c 0.020111,0.029788 -0.01726,0.046311 -0.077622,0.051688 v 0.02594 C 2.7758724,9.2880841 2.6978913,9.3307487 2.5535195,9.2224469 2.3789104,9.091495 2.2101745,8.9142854 2.0881438,8.7309113 Z" />
<path
   style="fill:#b56918;stroke:#b56918;stroke-width:0.0171201"
   id="path3876"
   d="M 5.4478335,5.1902792 C 5.5921038,5.3009265 5.6029912,5.7727573 5.6029912,5.9656813 5.5099598,6.0024285 5.4256604,6.1555954 5.361187,6.2396552 5.2521485,6.3818375 5.1716838,6.5325801 5.0861698,6.6892977 c -0.00863,0.00863 -0.017261,0.017257 -0.025891,0.025887 -0.1331095,0.00844 -0.1871718,0.1400079 -0.3331409,0.1608432 -0.1159193,0.016538 -0.3478983,0.045642 -0.3647098,0.1751726 -0.00863,0 -0.01726,0 -0.025891,0 v 0.025887 c -0.025852,0 -0.051719,0 -0.077552,0 0,0.017241 0,0.034478 0,0.05172 -0.025852,0 -0.051688,0 -0.07752,0 v 0 0 -0.025832 c 0.00863,0 0.017221,0 0.025813,0 v -0.025887 0 0 c 0.00863,0 0.01726,0 0.025891,0 v -0.025887 c 0.00863,0 0.017299,0 0.02593,0 v -0.025852 c 0.017261,0 0.034482,0 0.051719,0 v -0.025938 0 C 4.4116911,6.7886288 4.6010928,6.6261762 4.6985916,6.4308528 4.8068061,6.2140607 4.8828386,5.9452225 4.9827312,5.733054 v 0 0 c 0.00863,0 0.0173,0 0.02593,0 V 5.707163 c 0.00863,0 0.017261,0 0.02593,0 v -0.025891 0 0 c 0.019994,-0.011989 0.029171,-0.029171 0.025891,-0.051684 -0.017261,0 -0.034521,0 -0.051785,0 0,0.017222 0,0.034443 0,0.051684 C 4.9708172,5.654756 4.9285722,5.637085 4.8793873,5.629587 v 0.025852 c -0.00863,0 -0.01726,0 -0.025852,0 v 0.025812 c -0.01726,0 -0.034482,0 -0.051739,0 v -0.025812 0 0 c 0.00863,0 0.01726,0 0.025852,0 v -0.025852 0 0 c 0.00863,0 0.017261,0 0.025891,0 v -0.02593 h 0.025852 C 4.8698228,5.4250777 5.1309223,5.4487036 4.9828835,5.2936122 v 0 c 0.00863,-0.00863 0.017222,-0.017221 0.025813,-0.025852 0.043093,0 0.086147,0 0.1292395,0 v -0.02593 0 c 0.078907,-0.032022 0.2305221,-0.131395 0.309909,-0.051547 z" />
<path
   style="fill:#552811;stroke:#552811;stroke-width:0.0171201"
   id="path3878"
   d="m 5.9130725,5.8105236 v 0 c 0,0.2874121 -0.037177,0.5429631 -0.080414,0.8241267 -0.031241,0.203284 -0.017612,0.4092219 -0.027102,0.6138242 -0.00765,0.165329 -0.08209,0.2897063 -0.1057658,0.4551724 C 5.6788988,7.8498182 5.5197382,7.8461544 5.4736853,8.007289 5.4481071,8.212251 5.3970904,8.290541 5.2928125,8.4466084 5.2405117,8.6037702 4.9701841,8.6954318 5.0084112,8.8859612 c -0.060295,0 -0.1205936,0 -0.1808885,0 v -0.025815 c -0.00863,0 -0.017299,0 -0.02593,0 0.030265,-0.055586 0.0912,-0.1070684 0.077571,-0.1293079 v 0 c -0.173036,-0.0049 -0.3499881,0.061687 -0.5169082,0.1033715 v 0 c -0.00859,0 -0.017183,0 -0.025734,0 v 0 0.025906 h -0.02593 v 0 0.025815 c -0.034482,0 -0.06889,0 -0.1033526,0 v 0.025915 c -0.025032,-0.01969 -0.032998,-0.045829 -0.025891,-0.07762 0.00863,0 0.017261,0 0.025891,0 v 0 -0.02589 0 h 0.025812 v -0.025848 0 c 0.00863,0 0.017261,0 0.025891,0 v 0 -0.02594 0 h 0.025969 v -0.025832 0 c 0.00863,0 0.017261,0 0.02593,0 v 0 C 4.4619967,8.441196 4.7833754,8.2374494 4.8509494,7.8883019 4.899861,7.6356777 4.8930816,7.3712918 4.9300592,7.1156032 4.9511076,6.9701336 5.0299401,6.8587841 5.0603804,6.7147188 v 0 c 0.017261,0 0.025852,0 0.025852,0 C 5.0773286,6.5702422 5.2534958,6.4244129 5.3240455,6.3115232 5.411188,6.1720968 5.5168211,6.0399448 5.6031045,5.913513 v 0 0 c 0.01113,0.00313 0.105887,0.077572 0.077606,0.077572 v 0.025891 c 0.00863,0 0.017261,0 0.025891,0 v -0.025891 0 0 C 5.7785375,5.921628 5.8594982,5.894101 5.9131036,5.8105202 Z" />
<path
   style="fill:#925216;stroke:#925216;stroke-width:0.0171201"
   id="path3880"
   d="m 1.1835566,3.1226648 c 0.017261,-0.034443 0.034482,-0.068905 0.051704,-0.1033526 v 0.025813 0 h 0.025852 c 0,0.051688 0,0.1033565 0,0.1550407 0.00863,0 0.017221,0 0.025852,0 0.012027,-0.019994 0.029249,-0.029171 0.051735,-0.025852 -0.0048,-0.037723 0.00391,-0.072194 0.025891,-0.1034033 v 0 c 0,0.1526585 0,0.3053013 0,0.4579638 0,0.1915533 -0.054992,0.3687476 -0.051668,0.549929 v 0 c -0.00859,0.00863 -0.017221,0.017221 -0.025813,0.025852 v 0 c -0.043077,0.043089 -0.086151,0.086182 -0.1292395,0.1292552 0,-0.01726 0,-0.034521 0,-0.051755 -0.094949,0.077197 -0.08478,0.271081 -0.077556,0.3876875 -0.00863,0 -0.017261,0 -0.025852,0 0.00117,-0.06386 -0.017338,-0.1262443 -0.051754,-0.1808924 v 0 0 -0.025891 0 c 0,-0.4149569 0.079644,-0.835873 0.1808573,-1.2403875 z" />
<path
   style="fill:#230c0a;stroke:#230c0a;stroke-width:0.0171201"
   id="path3882"
   d="m 6.5074456,5.2160606 c 0.00352,-0.00469 0.077641,-0.049169 0.077641,-0.025852 0.036903,0.044854 0.1118462,0.092106 0.1292551,0.1355894 0.074318,0.1857191 0.084421,0.1476287 0.2324907,0.2584126 0.1669395,0.1248893 -0.1482418,0.3283103 2.03e-4,0.5104524 v 0 c 0.090103,-0.015659 0.1173603,0.05701 0.155193,0.1292571 0.00761,-0.064269 0.044393,-0.1143123 0.1034932,-0.1292415 0,-0.017261 0,-0.034521 0,-0.051751 0.017222,0 0.034482,0 0.051684,0 v 0.025891 0 0.025891 0 c 0.00687,0.2097036 -0.027531,0.1924637 0.1551422,0.2842786 0.087041,0.086868 0.00195,0.3241351 0.180908,0.3101482 0,0.025852 0,0.051685 0,0.07752 0.017221,0 0.034443,0 0.051668,0 V 6.7407542 H 7.619351 v 0 -0.025886 0 0 c 0.00859,0 0.017183,0 0.025773,0 0.012066,-0.019979 0.029327,-0.029121 0.051825,-0.025837 0,0.1317225 0.02097,0.2571444 0.02593,0.3877192 -0.059338,0.00481 -0.1271854,9.724e-4 -0.1809081,-0.025887 -0.08995,0 0.030343,0.1808912 -0.025891,0.1808912 -0.025891,0 -0.051735,0 -0.077622,0 -0.055792,0.016073 -0.095699,0.00499 -0.1034386,-0.051737 -0.034443,0 -0.06889,0 -0.1033369,0 v 0 c 0.00863,0 0.01726,0 0.025891,0 -0.016675,0.058944 -0.025305,0.1186252 -0.025891,0.1808737 0.013629,-0.00649 0.1291888,-0.0535 0.1291888,-0.025832 0,0.022943 -0.1363625,0.2866249 0.025852,0.2325766 0.039668,-0.019892 0.1207655,0.057421 0.1550758,0.077503 0.00667,0.045745 0.077521,0.1581042 0.077521,0.180908 h 0.025773 v 0.025887 0 c 0.00863,0 0.0173,0 0.025969,0 -0.00195,0.00101 -0.049817,0.051771 -0.025969,0.051771 h 0.025969 c -0.1383462,0.00575 -0.1886635,0.1055968 -0.2068262,0.2325765 0,0.1373372 -0.1201836,0.1924301 -0.1033721,0.3101304 -0.086611,0.00609 -0.1175477,-0.078444 -0.1033214,-0.1550907 -0.023743,0.021212 -0.04107,0.047337 -0.051805,0.077588 v 0 0 0.025832 c -0.040726,0.066221 -0.047661,0.1269633 -0.1034882,0.1810286 v 0 0 0.025848 0 c 0.00234,0.016398 -0.00641,0.045405 0.00652,0.058229 -0.00742,-0.0074 0.1097062,0.018726 0.122886,0.019449 0.043846,0.043759 -0.00582,0.2067771 0.077469,0.2067771 0.092774,-0.046427 0.029054,0.2870008 0.025734,0.3100615 0,0.024444 0.053758,0.2584455 0.026008,0.2584455 0.00632,0 -0.1292396,0.2811463 -0.1292396,0.2713705 0,0.1327156 0.087193,0.2385523 0.054902,0.4053867 -0.023313,0.120406 -0.029093,0.234785 -0.029093,0.356971 v 0 c 0,0.03448 0,0.06896 0,0.103439 -0.00859,0 -0.017183,0 -0.025774,0 v 0 0.02584 h -0.025893 v 0 0.0259 0 c -0.00863,0 -0.017261,0 -0.02593,0 v 0 0.02588 h -0.025891 v 0 -0.02588 c -0.025852,0 -0.051703,0 -0.077536,0 0.00352,-0.05245 0.00949,-0.361901 -0.051755,-0.361901 -0.00195,0.04216 -0.019057,0.05939 -0.051719,0.05169 -0.049665,-0.09949 -0.077571,-0.02628 -0.077571,-0.15504 -0.021009,-0.06314 -0.071084,-0.120013 -0.1033721,-0.1808915 v 0 -0.02589 c -0.01726,0 -0.034521,0 -0.05179,0 v 0.02589 c -0.00863,0 -0.01726,0 -0.025891,0 v -0.02589 c -0.025852,0 -0.051719,0 -0.077556,0 0.016831,0.081409 -0.01027,0.1597485 -0.077572,0.2068275 -0.00859,0 -0.01726,0 -0.025852,0 v 0 0 0.02585 c -0.09031,-0.118794 -0.2346972,-0.122013 -0.3618514,-0.180906 0.014645,0.06363 -0.00156,0.116262 -0.05177,0.155108 v 0 0 0.02589 c -0.00859,0 -0.017221,0 -0.025812,0 v 0 C 6.1083552,10.069003 5.9689975,9.7390296 5.8095754,9.7390296 5.5494717,9.6869008 5.0334039,9.7764888 4.7757956,9.8408943 4.5972502,9.8855262 4.4865872,10.02288 4.2991888,10.072204 4.1149107,10.120709 3.8762032,9.9512332 3.7420314,9.8425033 v 0 0.02594 c -0.06889,0 -0.13778,0 -0.2066739,0 C 3.3442141,9.751716 3.1686795,9.6606378 2.9409492,9.6098596 v 0.02589 h -0.025813 c -0.017183,0.074453 -0.033349,0.1547656 -0.02593,0.2326961 -0.00863,0 -0.017261,0 -0.02593,0 0,-0.077553 0,-0.1551254 0,-0.2326794 0,-0.1184883 -0.1285014,-0.1551421 -0.1033174,-0.2841766 H 2.7341081 C 2.716887,9.3342935 2.699626,9.3170392 2.6823533,9.2998181 v 0 0 c 0.4928716,0.07944 1.0593075,-0.305851 1.4988666,-0.4393536 -0.00313,0.022499 0.00593,0.039736 0.02593,0.051771 v -0.025956 c 0.034443,0 0.068859,0 0.1033058,0 v -0.02584 0 h 0.025891 v -0.025848 0 c 0.00863,0 0.017261,0 0.02593,0 v 0 c 0.166904,-0.04174 0.3437702,-0.108268 0.5168212,-0.1033544 v 0 c 0.013863,0.022258 -0.047201,0.073514 -0.077469,0.1292398 0.00859,0 0.017221,0 0.025813,0 v 0.02589 c 0.060299,0 0.1206288,0 0.1809276,0 C 4.9701764,8.6957859 5.2406172,8.6042447 5.2928676,8.4469791 5.3697705,8.3313993 5.4313032,8.2795083 5.4565028,8.1282521 5.4718889,8.035735 5.4759502,7.9153463 5.5541227,7.8468832 5.6276364,7.7824774 5.6814605,7.8330513 5.6998653,7.7039984 5.7196251,7.5651206 5.7881714,7.4568527 5.8004296,7.3263462 5.8220249,7.0963033 5.7973055,6.864206 5.8327248,6.6349678 5.8759704,6.3538042 5.9131039,6.098252 5.9131039,5.8108399 v 0 c 0.099041,-0.1664748 0.1201172,-0.2973232 0.1809939,-0.4653053 0.027921,-3.906e-4 0.054613,0.00867 0.077485,0.025852 v 0 c 0.00863,0 0.01726,0 0.025891,0 0.020267,0.033466 0.043296,0.034482 0.077485,0 0.023938,0.034873 0.05177,0.086779 0.05177,0.1292708 v 0 h 0.02593 v 0.025812 c 0.01726,0 0.034482,0 0.051719,0 0,-0.025852 0,-0.051703 0,-0.07754 0.01726,0 0.034521,0 0.05179,0 0.00582,-0.029093 0.026711,-0.2328498 0.051254,-0.2328498 z" />
<path
   style="fill:#c07219;stroke:#c07219;stroke-width:0.0171201"
   id="path3884"
   d="m 4.2072743,2.7867356 v -0.051684 c 0.124448,0.084417 0.2239658,0.1924125 0.2648992,0.3408769 0.027102,0.098253 0.033935,0.2040888 0.04239,0.3052858 0.00598,0.071374 0.1062502,0.142181 0.1062502,0.1808377 0,0.103751 0.6041164,0.4429174 0.7237182,0.4135393 v 0 0.025891 0 h 0.025774 v 0.025852 0 h 0.025891 c 0,0.017221 0,0.034482 0,0.051739 h 0.02593 C 5.4708854,4.5149139 5.1630807,4.6034935 4.8047753,4.7166909 4.5299611,4.8035092 4.3779196,4.7163003 4.1041363,4.6477501 4.0892191,4.5622009 3.9205025,4.5160464 3.8456728,4.4668576 v 0 -0.025891 0 0 c -0.016011,-0.074986 0.051703,-0.081612 0.051703,-0.1292395 v 0 0 c 0.027921,-0.034599 0.062384,-0.060572 0.1033682,-0.077625 -0.00859,0 -0.017183,0 -0.025774,0 v 0 -0.025852 h 0.025774 c 0.00859,0.0057 -0.1033371,-0.097378 -0.1033371,-0.077571 0,-0.1455043 0.077266,-0.065297 -0.017222,-0.2383952 C 3.7741265,3.6980047 3.9120901,3.3905595 4.1041511,3.3035888 v 0 c 0.00863,0 0.017299,0 0.02593,0 v -0.025852 h 0.025852 C 4.1641331,3.1644887 4.0167316,2.70911 4.1301211,2.70911 c 7.81e-4,0 0.077177,0.084624 0.077177,0.077657 z" />
<path
   style="fill:#b66719;stroke:#b66719;stroke-width:0.0171201"
   id="path3886"
   d="M 2.4498779,5.1385247 V 5.0351175 c 0.1453521,0.05523 0.092246,0.2434991 0.1292395,0.3618708 -0.014448,0.045674 -0.1112956,0.2842762 -0.1293216,0.2842762 -0.1726252,0 -0.3491322,0.059338 -0.542728,0.051719 v 0 c 0.06468,-0.04783 0.1381432,-0.053344 0.1809784,-0.103505 0.017261,0 0.034482,0 0.051719,0 0,-0.034482 0,-0.06898 0,-0.1034736 v 0 c -0.07923,-0.00699 -0.1610155,0 -0.2326977,0.025852 v 0 -0.025852 0 c 0.051071,-0.015777 0.1073281,-0.061497 0.129224,-0.1033917 -0.068909,0 -0.1378348,0 -0.20676,0 v -0.025891 c -0.020033,-0.011989 -0.02921,-0.029249 -0.025891,-0.051735 0.022494,-0.00312 0.03975,0.00589 0.05177,0.02593 0.00859,0 0.017221,0 0.025813,0 v 0 c 0.1299778,0.013551 0.2373527,-0.051668 0.3618163,-0.051668 0,0 0,-0.00859 0,-0.025852 C 2.288667,5.2717241 2.44985,5.1971836 2.44985,5.138564 Z" />
<path
   style="fill:#431b0d;stroke:#431b0d;stroke-width:0.0171201"
   id="path3888"
   d="m 4.414085,4.8283927 c 0.017183,0 0.034365,0 0.051567,0 v 0 h 0.02593 v 0.02593 c 0.2127035,0 0.4101302,0.039051 0.6203305,0.0517 -0.00617,0.054976 0.022727,0.089626 0.077556,0.1033721 v 0 0 c 0.00672,0.096851 -0.054613,0.2070528 -0.1550406,0.2068302 v 0.025852 c -0.00863,0 -0.017299,0 -0.025969,0 v 0.025891 0 c -0.00863,0 -0.01726,0 -0.02593,0 0,0 0,0.00863 0,0.025891 -0.3134865,0.044237 -0.6379151,0.025891 -0.956158,0.025891 -0.00863,0 -0.017261,0 -0.02593,0 v 0 0 -0.025891 c -0.00859,0 -0.017221,0 -0.025813,0 v 0 -0.025891 0 c 0.00796,-0.032022 -8.98e-5,-0.058362 -0.02593,-0.077469 v 0 0 C 3.947526,5.150283 3.9395206,5.1196552 3.9228458,5.0869929 v 0 c 0.00863,0 0.017222,0 0.025852,0 v -0.025891 c 0.1180748,0.015894 0.2006132,-0.051684 0.3101983,-0.051684 0.00641,-0.00391 0.047936,0 0.051719,0 0.135968,0 -0.018471,-0.1366202 -1.96e-5,-0.155025 v 0 c 0.017261,-1.133e-4 0.051668,-0.00879 0.1034542,-0.026008 z" />
<path
   style="fill:#e89d2c;stroke:#e89d2c;stroke-width:0.0171201"
   id="path3890"
   d="M 4.8792225,5.6554478 V 5.629557 c 0.06033,0 0.1206795,0 0.1810096,0 0.00312,0.022493 -0.00586,0.039699 -0.02593,0.0517 v 0 0 0.025969 c -0.00863,0 -0.01726,0 -0.025891,0 v 0.025852 c -0.00863,0 -0.01726,0 -0.025891,0 v 0 0 C 4.8826238,5.9451796 4.8066772,6.2141713 4.6982753,6.4308774 4.6006047,6.6261836 4.4114451,6.7886878 4.3105371,6.9994703 v 0 0.025887 c -0.017221,0 -0.034482,0 -0.051684,0 v 0.025867 c -0.020034,0.012 -0.02921,0.029241 -0.025891,0.051737 -0.022533,-0.00332 -0.03977,0.00585 -0.05184,0.025852 v 0 C 3.9938952,7.2659112 3.8139791,7.3203359 3.5867292,7.3615781 3.4018496,6.9742531 3.53073,6.438599 3.4315011,6.0434165 c 0,-0.4230404 0.3104366,-0.2706006 0.6203109,-0.2843154 0.248482,-0.011012 0.502357,-0.082503 0.7495036,-0.1033213 v 0.025852 c 0.01726,0 0.034521,0 0.051786,0 v -0.025852 h 0.025891 v -3.242e-4 z" />
<path
   style="fill:#b5691b;stroke:#b5691b;stroke-width:0.0171201"
   id="path3892"
   d="m 1.0801493,5.6812333 v -0.025813 c 0.108031,-0.0255 0.095976,0.026477 0.1292396,0.077591 0.01152,0.017651 0,0.110784 0,0.1215699 0,0.1115026 0.061787,0.1310867 0.1033214,0.2144646 0,0.095032 0.076337,0.030382 0.045213,0.1550551 -0.02839,0.113746 -0.045249,0.2177508 -0.045249,0.3359479 -0.00234,0.077434 0,0.1551427 0,0.232645 h 0.025852 v 0.025902 c -0.040199,-0.00125 -0.070808,-0.00918 -0.103454,-0.025902 0.00313,-0.022478 -0.00586,-0.039702 -0.025891,-0.05172 v 0 0.025852 0 c -0.01726,0.017221 -0.034482,0.034478 -0.051703,0.051754 v 0 0 -0.025902 c -0.01726,-0.017241 -0.034521,-0.034478 -0.051805,-0.05172 v 0 0 C 1.0904822,6.4017734 1.0030195,6.051871 0.9764492,5.7071241 v 0 h 0.0258907 c -0.004646,0.065536 0.012887,0.1266037 0.051739,0.1809432 -0.00625,-0.052473 -0.013316,-0.1673846 0.026047,-0.2068262 z" />
<path
   style="fill:#b4641b;stroke:#b4641b;stroke-width:0.0171201"
   id="path3894"
   d="m 2.9667698,8.0331233 c 0.00863,-0.017221 0.01726,-0.034447 0.02593,-0.051668 0.00859,0 0.017183,0 0.025813,0 v 0.025852 0 0 c 0,0.025852 0,0.051685 0,0.07752 v 0 0.025918 0 c -0.00859,0 -0.017183,0 -0.025813,0 v 0 0.025852 h -0.02593 c -0.067437,0.049221 -0.1489291,0.065124 -0.2326468,0.077537 v 0.025887 H 2.708271 c 0,0.025852 0,0.05172 0,0.077554 0.034443,0 0.068909,0 0.1033565,0 v 0.025887 0 h 0.025891 v 0.025867 c 0.01937,-0.00304 0.1033722,-0.00297 0.1033722,0.025902 -0.0214,0.021384 -0.029093,0.04958 -0.02593,0.077572 -0.06896,0.00158 -0.2089193,0.023953 -0.2584283,-0.025907 v 0 C 2.6147906,8.3814842 2.4497022,8.3084671 2.4497022,8.2142723 2.5043659,8.1051487 2.9667815,8.1165165 2.9667815,8.0331245 Z" />
<path
   style="fill:#e1922a;stroke:#e1922a;stroke-width:0.0171201"
   id="path3896"
   d="m 2.1915042,7.1285482 c 0.084796,0.026914 0.2296321,0.1550567 0.3102335,0.1550567 v 0 c 0,0 0,0.00859 0,0.025902 0.00863,0 0.017221,0 0.025852,0 0.00863,0.00861 0.01726,0.017241 0.02593,0.025852 v 0 c 0,0 0,0.00861 0,0.025887 0.068925,0.049922 0.082842,0.1976687 0.1550367,0.2326108 v 0 c 0.01726,0.017257 0.034482,0.034498 0.051774,0.05172 v 0 c 0,0.017257 0,0.034514 0,0.051755 v 0 0 0.025867 c -0.00863,0 -0.01726,0 -0.025891,0 v 0.025918 c -0.00863,0 -0.017261,0 -0.025891,0 v 0 c -0.1728947,0.059373 -0.3066369,0.00392 -0.4652195,-0.05177 v 0 c -0.017299,-0.017221 -0.03456,-0.034482 -0.05179,-0.051755 v 0 0 -0.025817 C 2.1521449,7.5915097 2.1067589,7.5357157 2.0622996,7.490518 2.0536696,7.481908 2.0450386,7.473277 2.0364086,7.464666 v 0 -0.025938 c 0,0 -0.00859,0 -0.025812,0 v 0 C 2.0019666,7.430118 1.9933746,7.421522 1.9847446,7.412911 v 0 0 C 1.9739273,7.289596 2.0598007,7.1285471 2.1915394,7.1285471 Z" />
<path
   style="fill:#c57f25;stroke:#c57f25;stroke-width:0.0171201"
   id="path3898"
   d="m 2.6825091,2.0113841 c 0.070514,-0.020267 0.1293411,-0.014605 0.1810252,0.025852 7.81e-4,0.078324 -0.032959,0.1499718 -0.1034034,0.1810096 v 0 0 0 c 0,0.034482 0,0.06896 0,0.1034425 -0.069284,0.00195 -0.4651725,0.0711 -0.4651725,0.1550718 0,0.082042 -0.2368722,0.1119829 -0.3101829,0.1034073 v 0 0 0 0 c 0.00863,0 0.01726,0 0.02593,0 v -0.025852 c 0.00859,0 0.017183,0 0.025812,0 v -0.025852 c -0.051688,0 -0.1033565,0 -0.155025,0 0,-0.01726 0,-0.034482 0,-0.051755 v 0 -0.025852 0 -0.025891 c 0.017261,0 0.034521,0 0.051805,0 0.015581,-0.067762 0.047509,-0.1118814 0.077556,-0.1809081 0.00859,-0.00863 0.017182,-0.017261 0.025813,-0.025891 0.065125,0.012691 0.5944786,-0.2030773 0.5944786,-0.1809081 v 0 c 0.00863,-0.00863 0.017221,-0.017221 0.025852,-0.025852 -0.00828,0 0.03456,0 0.025578,0 z" />
<path
   style="fill:#e69d32;stroke:#e69d32;stroke-width:0.0171201"
   id="path3900"
   d="m 2.5791019,5.3969336 v 0 c 0.081457,0.035342 0.1586333,0.055093 0.2325765,0.1293255 0.017261,0.00863 0.034482,0.01726 0.051719,0.025852 -0.04453,0.4894975 -0.00539,1.1216933 -0.2843466,1.5249059 -0.00863,0 -0.01726,0 -0.025891,0 v 0 0 C 2.4770098,7.042484 2.3500981,7.010677 2.3205832,6.921943 2.3085552,6.873784 2.3190232,6.6117952 2.2430322,6.6117952 c -0.048607,0 -0.075603,0.3100795 -0.1551264,0.3100795 0.048861,0.048946 0.08981,0.1186766 0.1292395,0.1550398 v 0.025938 c 0.00863,0 0.01726,0 0.025891,0 v 0.025836 0 0 h 0.025812 v 0.025887 c -0.149866,-0.089435 -0.2732166,0.083666 -0.2842758,0.2327819 0.00859,0 0.017183,0 0.025813,0 v 0.025817 c 0.00863,0 0.01726,0 0.025852,0 v 0.025918 0 0 c 0.019956,0.01195 0.029171,0.029121 0.025891,0.051549 -0.01726,0 -0.034521,0 -0.051755,0 v -0.025867 h -0.025813 v 0 -0.025902 0 c -0.00863,0 -0.01726,0 -0.02593,0 v 0 -0.025852 H 1.932779 c -0.015464,-0.3001855 -0.6203812,-0.4379 -0.6203812,-0.7003171 0,-0.109791 0.09414,-0.5495722 0.051735,-0.5920477 C 1.2045231,6.0409992 1.2091273,5.8558268 1.2091273,5.7071202 v 0 0 h 0.025852 v -0.025891 c 0.1756166,0 0.3444227,0.025891 0.5171145,0.025891 0.1816618,0 0.3293373,0.067934 0.5167513,-0.025852 0.070346,-0.046877 0.1021381,0.00117 0.1551422,-0.051703 0.017885,-0.017924 0.1681891,-0.2326468 0.1550914,-0.2326468 z" />
<path
   style="fill:#4a210f;stroke:#4a210f;stroke-width:0.0171201"
   id="path3902"
   d="m 2.6049537,1.0034209 c 0.025852,0 0.051719,0 0.077586,0 0,0.017222 0,0.034482 0,0.051719 0.02796,-3.905e-4 0.054668,0.00863 0.077571,0.025852 v 0 c 0.00863,0 0.01726,0 0.025852,0 v -0.025852 c 0.00863,0 0.01726,0 0.02593,0 v 0.025852 h 0.051633 c 0,0.025852 0,0.051704 0,0.077556 v 0 c -0.052797,0.2642665 -0.082929,0.5571575 -0.1808728,0.8011877 -0.00863,0 -0.01726,0 -0.025891,0 0,0.01726 0,0.034482 0,0.051755 -0.00859,0.00863 -0.017221,0.017221 -0.025813,0.025852 v 0 c -0.106352,0.050489 -0.2330571,0.047525 -0.3475041,0.083288 -0.091934,0.028741 -0.1400412,0.1184732 -0.2469591,0.09762 -0.00859,0.00863 -0.017222,0.01726 -0.025813,0.025852 -0.2234543,0.049341 -0.5019979,0.1601447 -0.6518486,0.3475234 -0.018198,0.022766 -0.05316,0.1436026 -0.084796,0.1436026 -0.084917,0 -0.1291029,-0.019135 -0.1679314,0.1033214 v 0 c -0.00863,0 -0.017221,0 -0.025852,0 v 0 0.025891 h -0.025891 v 0 0.025891 0 c -0.00863,0 -0.01726,0 -0.025891,0 v 0 -0.025891 h -0.025813 v 0 0.025891 0 c -0.00863,0 -0.0172602,0 -0.0258907,0 C 0.9647317,2.910326 0.9475097,2.919464 0.92502,2.916184 0.921895,2.893729 0.93088,2.876501 0.9508716,2.864465 v -0.025891 0 0 0 c 0,-0.025852 0,-0.051739 0,-0.077606 h 0.0258907 v -0.025891 0 H 1.002653 c -0.004488,-0.072041 0.014566,-0.1448678 0.0517,-0.2067599 0,0 0.00863,0 0.025891,0 0.038699,-0.1440633 0.1530178,-0.286264 0.2325922,-0.4135705 v 0 -0.025852 0 -0.025891 0 c 0.034482,0 0.068909,0 0.1033721,0 v -0.025852 0 h 0.025891 v -0.025891 0 c 0.048946,-0.020892 0.310132,-0.3147712 0.310132,-0.361816 0,-0.1852896 0.4910558,-0.2821207 0.4910558,-0.4651883 v 0 c 0,0 0.00859,0 0.025891,0 v -0.025813 c 0.063087,-0.00875 0.3357926,-0.097686 0.3357926,-0.1549703 z" />
<path
   style="fill:#260c08;stroke:#260c08;stroke-width:0.0171201"
   id="path3904"
   d="m 4.1297736,0.7191759 c 0.2467169,0 0.2584088,-0.0244462 0.2584088,0.18085334 0.025031,0.019643 0.033037,0.0457482 0.02593,0.0775399 0.039735,0.0128477 0.1034072,0.0476772 0.1034072,0.10340336 0,0.049443 0.2030773,0.093992 0.2358802,0.1066094 0.2507393,0.096452 0.5065161,0.2252116 0.7397915,0.358614 0.1708603,0.097706 0.3208477,0.2236221 0.5233471,0.2067247 v 0 c -0.018823,-0.168685 0.081715,-0.2522974 -0.051633,-0.3877695 -0.00859,0 -0.017221,0 -0.025813,0 v -0.025852 c -0.00863,0 -0.01726,0 -0.025891,0 v 0 0 -0.025891 c -0.00863,0 -0.0173,0 -0.025969,0 v -0.025852 c 0.087416,0.024759 0.1713874,0.077778 0.2586315,0.025852 v 0.025891 c 0.00863,0 0.01726,0 0.025852,0 0.1594065,0.1062502 0.5049774,0.2655669 0.5426734,0.4652038 0.017261,0 0.034521,0 0.05179,0 -0.00312,0.022533 0.00593,0.039754 0.025969,0.05179 v 0 0.025852 C 6.894442,1.939241 6.9757111,2.0972926 7.0503027,2.1990207 7.2340536,2.4496076 7.404945,2.7058608 7.5262573,2.9934603 7.6850312,3.3698816 7.7543664,3.657895 7.8259275,4.0531466 7.9927459,4.8451222 7.9809681,5.5755845 7.9809681,6.379237 7.9140817,6.4009961 7.826974,6.4193326 7.7483408,6.4050886 v 0 -0.025852 h -0.025891 c 0.00719,0.1056653 -0.027375,0.2051331 -0.02593,0.3101993 -0.022493,-0.00328 -0.039699,0.00589 -0.051719,0.025887 -0.00863,0 -0.017222,0 -0.025852,0 v 0 0 0.025887 0 h 0.025852 v 0.025832 c -0.01726,0 -0.034521,0 -0.051755,0 0,-0.025852 0,-0.051703 0,-0.077537 C 7.41445,6.7034939 7.4989371,6.4664479 7.4122241,6.3793921 7.2294338,6.2878169 7.2639822,6.3046288 7.2571014,6.0950771 v 0 -0.025852 0 -0.02593 c -0.01726,0 -0.03456,0 -0.051805,0 0,0.017261 0,0.034521 0,0.051755 -0.059084,0.014956 -0.095823,0.06497 -0.1033562,0.1292217 -0.037958,-0.072247 -0.065157,-0.1449401 -0.15533,-0.1292415 v 0 c -0.053859,-0.066239 -0.1022084,-0.2590258 -6.64e-5,-0.3100968 0.2122348,0 -0.1183873,-0.2454322 -0.137905,-0.2584597 C 6.7505855,5.4876961 6.655621,5.3000439 6.6363611,5.2422093 6.5790067,5.1664033 6.5384678,5.1125948 6.4426482,5.0742622 6.2066468,4.9798602 5.8145114,5.0547758 5.9387173,4.6420487 6.0004844,4.4368119 5.9962747,4.2880546 5.944575,4.0705635 5.9228235,3.9790902 5.8978698,3.8852543 5.8555151,3.8006111 5.8185728,3.7268397 5.7645729,3.7855764 5.7578796,3.7755013 5.6443229,3.604969 5.6631221,3.5801599 5.4477319,3.5364032 5.4376177,3.4466247 5.3950209,3.379738 5.344395,3.3037915 5.224434,3.1238246 5.1837389,3.0905101 5.124678,2.8838361 5.0884777,2.757045 4.9378264,2.7488443 4.8792068,2.6318434 c 0,-0.1085894 -0.2326624,-0.1302315 -0.2326624,-0.2067911 0,0.00457 -0.3108155,-0.1235069 -0.331083,-0.1308173 C 4.1751782,2.2437302 4.0350668,2.198759 3.8885355,2.172134 3.7116341,2.139995 3.53451,2.1097148 3.3543869,2.1149202 c -0.00863,-0.00863 -0.017222,-0.017221 -0.025852,-0.025812 v 0 c -0.017339,-0.053622 -0.035537,-0.077606 -0.1034386,-0.077606 -0.07706,-0.03866 -0.051633,-0.3024779 -0.051633,-0.3618512 0,-0.1704814 0.069406,-0.3546268 0.051633,-0.5168919 v 0 c 0,-0.025852 0,-0.051719 0,-0.077572 C 3.06232,0.98862445 3.0012168,1.1584066 2.863261,1.1586292 v 0 c 0,-0.025852 0,-0.051723 0,-0.077572 h -0.051684 v -0.02589 c -0.00863,0 -0.01726,0 -0.025852,0 v 0.025891 c -0.00863,0 -0.01726,0 -0.025891,0 v 0 C 2.7369498,1.063837 2.7102388,1.05462 2.6822818,1.055167 c 0,-0.017221 0,-0.034443 0,-0.051668 -0.01726,0 -0.034482,0 -0.051723,0 v 0 -0.0258907 0 c 0.00863,0 0.017221,0 0.025852,0 v 0 c 0.041035,-0.0221423 0.084179,-0.0394107 0.1292396,-0.0516841 0.00859,0 0.017183,0 0.025813,0 0.012066,-0.0228836 0.029015,-0.0307329 0.051755,-0.0258516 v 0 H 2.88907 V 0.874221 C 3.3118488,0.8092163 3.6985951,0.7191645 4.1297972,0.7191645 Z" />
<path
   style="fill:#52260e;stroke:#52260e;stroke-width:0.0171201"
   id="path3906"
   d="m 5.4219818,3.6912759 0.025891,-0.155107 c 0.2153159,0.043862 0.1965011,0.068668 0.3101476,0.2391137 0.021166,0.031709 0.040589,-0.080496 0.077434,-0.00644 0.06586,0.065688 0.089486,0.218811 0.1091555,0.3015525 0.034131,0.1433799 0.077692,0.3117214 0.045952,0.4594712 -0.023704,0.1102334 -0.072537,0.1480348 -0.051688,0.2728421 0.060865,0.3658735 0.5446768,0.06841 0.6459246,0.3876835 -0.1266194,-0.00824 -0.1112956,0.1693021 -0.1293763,0.2584284 -0.017222,0 -0.034482,0 -0.051719,0 0,0.025852 0,0.051719 0,0.077556 -0.01726,0 -0.034521,0 -0.05177,0 v -0.025813 h -0.025852 v 0 c 0,-0.042444 -0.02796,-0.094386 -0.051785,-0.1292747 -0.034287,0.034365 -0.057253,0.033506 -0.077571,0 -0.00859,0 -0.017221,0 -0.025813,0 v 0 C 6.1481056,5.354142 6.1214685,5.3449255 6.0936288,5.3454333 6.032838,5.5134194 6.0112468,5.6441819 5.91267,5.8107582 v 0 C 5.858983,5.8945811 5.7780027,5.9221785 5.705809,5.9917011 v 0 0 0.025852 c -0.00863,0 -0.01726,0 -0.025852,0 v -0.025852 c -0.01726,0 -0.03456,0 -0.051806,0 v 0.025852 H 5.602299 c 0,-0.017261 0,-0.034482 0,-0.051719 v 0 0 c 0,-0.017261 0,-0.034482 0,-0.051719 v 0 0 C 5.5965206,5.7137042 5.5862892,5.4733058 5.5113931,5.2861144 5.4388714,5.1048276 5.2958664,5.177572 5.1370964,5.2420804 v 0 0.025891 c -0.043077,0 -0.086131,0 -0.1292083,0 v 0 0 -0.025891 c 0.00867,0 0.017338,0 0.025969,0 v -0.025852 c 0.1004433,2.577e-4 0.1617691,-0.10996 0.1550406,-0.2068262 v 0 0 C 5.1340972,4.9956173 5.1051643,4.9609868 5.1113422,4.9060302 4.9011614,4.8933386 4.7037152,4.8543265 4.491047,4.8543265 v -0.02593 H 4.465156 v 0 0 0 -0.025813 c 0.025852,0 0.051719,0 0.077571,0 v -0.025852 0 C 4.9073516,4.7373919 5.5177864,4.5805511 5.4214006,4.104612 v 0 h 0.025891 C 5.4511976,3.9634072 5.3949198,3.8264472 5.4219475,3.6913344 Z" />
<path
   style="fill:#9d5617;stroke:#9d5617;stroke-width:0.0171201"
   id="path3908"
   d="m 5.0601657,6.689195 h 0.025891 C 4.9254902,7.0637316 4.9167076,7.4157553 4.873068,7.8160746 4.8309358,8.2024925 4.4734504,8.4202773 4.3106386,8.7310069 v 0 c -0.00859,0 -0.017222,0 -0.025812,0 v 0 0.025906 h -0.025891 v 0 0.02589 0 c -0.00863,0 -0.01726,0 -0.025891,0 v 0 0.02589 h -0.025931 v 0 0.025898 0 c -0.00863,0 -0.017299,0 -0.025969,0 v 0.025832 C 3.9470104,8.9315597 3.7330613,9.0835319 3.492042,9.1504715 3.3119032,9.2004975 3.1232396,9.2318229 2.9407734,9.273959 v 0 -0.025898 c 0.060384,-0.00549 0.097827,-0.02195 0.077556,-0.051738 v 0 C 2.9647076,9.1521146 2.9070335,9.1353257 2.8374367,9.1445845 v -0.025915 c 0.00863,0 0.01726,0 0.02593,0 v -0.025848 c -0.01726,0 -0.034482,0 -0.051755,0 0.030304,-0.010647 0.056409,-0.027976 0.077606,-0.051721 0.017183,0 0.025813,0 0.025813,0 v -0.02589 0 c 0,-0.079041 0.2188462,-0.1682399 0.2584635,-0.2584629 0.026711,-0.060806 0.031983,-0.1415315 0.025891,-0.2067939 -0.083034,-0.048788 -0.1765265,-0.087928 -0.2843817,-0.07762 -0.00313,-0.027993 0.00449,-0.056188 0.025852,-0.077571 0,-0.028812 -0.084007,-0.028882 -0.1033214,-0.025837 v -0.025852 h -0.025891 v 0 -0.025938 c -0.034443,0 -0.068875,0 -0.1033214,0 0,-0.025867 0,-0.05172 0,-0.077572 h 0.025852 v -0.025832 c 0.036669,-0.00543 0.2326274,-0.028488 0.2326274,-0.077572 h 0.025891 v -0.025887 0 c 0.00863,0 0.01726,0 0.025891,0 v 0 -0.025852 0 c 0,-0.025852 0,-0.051685 0,-0.077519 v 0 0 -0.025887 c -0.00863,0 -0.01726,0 -0.025891,0 -0.065035,-0.016978 -0.1376073,-0.031458 -0.2067903,-0.025877 v 0 0 c 0.2905089,-0.036329 0.9290371,0.00356 1.1113353,-0.2585134 v 0 c 0.00863,0 0.017261,0 0.025891,0 V 7.670707 h 0.025813 c -0.01074,-0.05451 0.00636,-0.097704 0.051855,-0.129274 C 3.970492,7.5307838 3.9443863,7.5134411 3.9231894,7.489713 3.8179545,7.4637089 3.7166521,7.4191442 3.6130613,7.3863076 c -0.00859,0 -0.017221,0 -0.025852,0 v 0 0 -0.025832 0 c 0.1224955,-0.022205 0.2258169,-0.025695 0.3425211,-0.077588 -0.0089,0.00394 0.3037275,-0.163822 0.3037275,-0.1810279 0.034248,-0.00858 0.069203,-0.017308 0.1034581,-0.025867 v -0.025918 c 0.00859,0 0.017222,0 0.025812,0 0.014956,-0.1144306 0.1735469,-0.1316705 0.2786138,-0.15795 0.08512,-0.021279 0.1964505,-0.00677 0.2641806,-0.074678 1.96e-5,-0.015698 0.142146,-0.1282465 0.1546619,-0.1282465 z" />
<path
   style="fill:#f0b53a;stroke:#f0b53a;stroke-width:0.0171201"
   id="path3910"
   d="m 2.7600607,2.3215317 v 0 c 0.066289,-0.00469 0.112635,0.077521 0.1550758,0.077521 0.019916,0.025422 0.045745,0.042695 0.077485,0.05177 0.043089,-0.00863 0.068925,-0.034482 0.077556,-0.077571 7.81e-4,0 0.1347848,0.1200781 0.1485659,0.1292747 0.086166,0.057452 0.2458812,0.1229367 0.3424194,0.1550914 0.1756517,0.058564 0.3085543,0.4499149 0.4911064,0.4393867 v 0.025852 0 c 0.1290169,0.1781159 -0.04018,0.2134688 -0.1291693,0.3618824 -0.046943,0.078172 -0.077556,0.1664592 -0.077556,0.2584128 0,0.1292552 0.096077,0.1644558 0.1227689,0.2713699 0.024798,0.099467 -0.1174423,0.094265 0.032256,0.1939042 h -0.025813 v 0.025852 0 c 0.00859,0 0.017221,0 0.025813,0 -0.040988,0.017066 -0.075416,0.043023 -0.1033565,0.077641 v 0 C 3.6496052,4.2921586 3.4995982,4.4045711 3.3027339,4.4927562 3.1247196,4.5084548 2.9909071,4.7702376 2.8116626,4.7254343 2.7286283,4.7088376 2.531061,4.5815936 2.4499129,4.6220466 c -0.045694,-0.00566 -0.096983,0.012379 -0.1550407,0 0,-0.01726 0,-0.034521 0,-0.051755 h -0.025813 v -0.025852 c -0.00863,0 -0.01726,0 -0.025891,0 0,0.01726 0,0.034482 0,0.051739 -0.051036,-0.011872 -0.092844,-0.052782 -0.1034933,-0.1034932 0,0 -0.00859,0 -0.02593,0 v 0 c 0.039941,-0.1659437 0.09293,-0.4622086 0.037411,-0.6288904 -0.00941,0.00434 -0.015386,0.011559 -0.017964,0.021595 -0.012652,-0.025227 -0.05136,-0.2454868 -0.097038,-0.2454868 -0.034131,0 -0.024134,-0.1033213 -0.1033526,-0.1033213 -0.068894,0 -0.1034933,-0.061084 -0.1276503,-0.1162786 C 1.6603,3.0893737 1.7490322,2.868079 1.932732,2.6061751 1.949953,2.5975851 1.967214,2.5889541 1.984416,2.5803231 v 0 0 C 2.04598,2.5875128 2.7600605,2.2836836 2.7600605,2.3215047 Z" />
<path
   style="fill:#cb811f;stroke:#cb811f;stroke-width:0.0171201"
   id="path3912"
   d="m 3.1735141,2.0889044 c 0.051684,0 0.1033876,0 0.1550718,0 0,0.017183 0,0.025852 0,0.025852 0.1609803,-0.00434 0.3247019,-0.011364 0.4264613,0.090548 0.043023,0.043074 0.1017124,0.07401 0.1421146,0.1162981 0.1072734,0.035693 0.1747107,0.3618669 0.2842607,0.3618669 v 0.025852 h 0.025891 v 0.02593 0 0.051633 c 0,3.905e-4 -0.068206,-0.039957 -0.090532,-0.00648 -0.051341,0.07704 0.019331,0.2252818 0.032374,0.3036417 0.010388,0.062232 0.00879,0.1308484 0.00644,0.1938184 h -0.025891 v 0.025891 c -0.00863,0 -0.017261,0 -0.025891,0 v 0 0 c 0.00543,-0.065824 -0.01234,-0.12667 -0.051719,-0.1809588 v 0 -0.025891 C 3.9249452,3.104166 3.7053648,2.7760543 3.6191478,2.6898372 3.5445212,2.6152105 3.3772889,2.5533537 3.2767284,2.5282907 3.2224396,2.5102102 3.0962656,2.3731837 3.0699998,2.3731837 c -0.044955,0 -0.049392,0.1394436 -0.1615621,0.06461 -0.063841,-0.042577 -0.048532,-0.118028 -0.148566,-0.1162629 0,-0.034482 0,-0.068995 0,-0.1034736 v 0 0 0 C 2.8302847,2.1870512 2.8642006,2.1154231 2.8633102,2.037114 2.967108,2.041484 3.0702575,2.068238 3.1734774,2.088939 Z m 0.8787743,0.6719442 c 0,-0.017183 0,-0.025852 0,-0.025852 v 0 c 0,0.01726 0,0.025852 0,0.025852 z" />
<path
   style="fill:#31140c;stroke:#31140c;stroke-width:0.0171201"
   id="path3914"
   d="m 1.2610262,2.7349812 h 0.025891 C 1.2149613,3.2760106 1.0025664,3.7980533 1.0025664,4.3631537 v 0 C 0.9853452,4.7602212 0.9767147,5.1546841 0.9767147,5.5520444 H 0.9508631 v -0.025891 c -0.017261,0 -0.0344821,0 -0.0517547,0 V 5.5002624 C 0.8818873,5.4830024 0.8646263,5.4657414 0.8473536,5.4485434 v 0 0.025852 c -0.008631,0 -0.0172602,0 -0.0258907,0 -0.004604,-0.09969 0.056085,-0.6734906 -0.10340338,-0.6201937 -0.15885985,0 -0.0214001,-0.6977804 -0.10337213,-0.6977804 -0.041019,0 -0.0863888,0.046549 -0.15507578,0.025852 v -0.025852 0 c 0.00699,-0.1883239 0.053742,-0.299225 0.18734757,-0.4329008 0.11010067,-0.1101514 0.0379189,-0.3873399 0.096917,-0.4458931 -0.0348337,0.017456 -0.0582958,0.00789 -0.0775557,-0.025852 v 0 c 0.0173001,0 0.0258907,0 0.0258907,0 0.0378017,-0.1193791 0.17476145,-0.2329554 0.23262725,-0.3360151 0.0224938,0.00313 0.0397191,-0.00586 0.051739,-0.025891 0.008631,0 0.017261,0 0.0258516,0 v 0 -0.025891 0 h 0.025852 v 0.025891 0 c 0.00863,0 0.017261,0 0.025891,0 v 0 -0.025891 0 h 0.025891 v -0.025852 0 c 0.00863,0 0.017222,0 0.025813,0 v 0 C 1.141645,2.7254618 1.1847618,2.7350137 1.260966,2.7350137 Z" />
</svg>