<?xml version="1.0" encoding="utf-8"?>
<!-- Generator: Adobe Illustrator 16.0.4, SVG Export Plug-In . SVG Version: 6.00 Build 0)  -->
<!DOCTYPE svg PUBLIC "-//W3C//DTD SVG 1.1//EN" "http://www.w3.org/Graphics/SVG/1.1/DTD/svg11.dtd">
<svg version="1.1" id="Layer_1" xmlns="http://www.w3.org/2000/svg" xmlns:xlink="http://www.w3.org/1999/xlink" x="0px" y="0px"
	 width="792px" height="612px" viewBox="0 0 792 612" enable-background="new 0 0 792 612" xml:space="preserve">
<rect x="66.672" y="578.601" fill="#FFFFFF" width="37.103" height="12.365"/>
<rect x="202.961" y="578.594" fill="#FFFFFF" width="502.65" height="12.337"/>
<rect x="705.611" y="578.561" fill="#FFFFFF" width="37.096" height="12.37"/>
<rect x="79.029" y="355.999" fill="#555555" stroke="#000000" stroke-miterlimit="10" width="12.373" height="222.602"/>
<rect x="91.401" y="461.117" fill="#776445" width="194.541" height="6.173"/>
<rect x="292.125" y="461.107" fill="#776445" width="210.232" height="6.171"/>
<rect x="285.948" y="543.191" fill="#555555" width="278.247" height="14.255"/>
<rect x="591.547" y="399.257" fill="none" stroke="#010101" stroke-width="0.5" stroke-miterlimit="10" width="126.415" height="68.008"/>
<line fill="none" stroke="#010101" stroke-linecap="round" stroke-linejoin="round" x1="150.398" y1="461.114" x2="150.396" y2="417.83"/>
<line fill="none" stroke="#010101" stroke-linecap="round" stroke-linejoin="round" x1="100.933" y1="461.117" x2="100.931" y2="417.832"/>
<line fill="none" stroke="#010101" stroke-linecap="round" stroke-linejoin="round" x1="100.933" y1="461.117" x2="150.398" y2="461.114"/>
<line fill="none" stroke="#010101" stroke-linecap="round" stroke-linejoin="round" x1="91.394" y1="414.742" x2="285.937" y2="414.728"/>
<polygon fill="none" stroke="#010101" stroke-linecap="round" stroke-linejoin="round" points="512,410.901 512.003,459.621 
	560.724,459.621 560.724,410.896 "/>
<line fill="none" stroke="#010101" stroke-linecap="round" stroke-linejoin="round" x1="561.092" y1="368.343" x2="511.629" y2="368.344"/>
<line fill="none" stroke="#010101" stroke-linecap="round" stroke-linejoin="round" x1="561.101" y1="543.18" x2="561.092" y2="368.343"/>
<line fill="none" stroke="#010101" stroke-linecap="round" stroke-linejoin="round" x1="511.629" y1="368.344" x2="511.635" y2="543.182"/>
<line fill="none" stroke="#010101" stroke-linecap="round" stroke-linejoin="round" x1="508.534" y1="362.161" x2="508.546" y2="543.18"/>
<line fill="none" stroke="#010101" stroke-linecap="round" stroke-linejoin="round" x1="564.192" y1="543.177" x2="564.187" y2="362.16"/>
<line fill="none" stroke="#010101" stroke-linecap="round" stroke-linejoin="round" x1="508.534" y1="362.161" x2="564.187" y2="362.16"/>
<line fill="none" stroke="#010101" stroke-linecap="round" stroke-linejoin="round" x1="372.513" y1="543.188" x2="372.513" y2="524.635"/>
<line fill="none" stroke="#010101" stroke-linecap="round" stroke-linejoin="round" x1="372.513" y1="524.635" x2="421.976" y2="524.635"/>
<line fill="none" stroke="#010101" stroke-linecap="round" stroke-linejoin="round" x1="421.976" y1="524.635" x2="421.979" y2="543.188"/>
<line fill="none" stroke="#010101" stroke-linecap="round" stroke-linejoin="round" x1="202.963" y1="590.959" x2="705.611" y2="590.931"/>
<line fill="none" stroke="#010101" stroke-linecap="round" stroke-linejoin="round" x1="202.961" y1="578.594" x2="202.963" y2="590.959"/>
<line fill="none" stroke="#010101" stroke-linecap="round" stroke-linejoin="round" x1="215.328" y1="578.594" x2="202.961" y2="578.594"/>
<line fill="none" stroke="#010101" stroke-linecap="round" stroke-linejoin="round" x1="717.974" y1="578.564" x2="730.342" y2="578.564"/>
<line fill="none" stroke="#010101" stroke-linecap="round" stroke-linejoin="round" x1="705.611" y1="578.565" x2="742.707" y2="578.561"/>
<line fill="none" stroke="#010101" stroke-linecap="round" stroke-linejoin="round" x1="742.707" y1="578.561" x2="742.71" y2="590.928"/>
<line fill="none" stroke="#010101" stroke-linecap="round" stroke-linejoin="round" x1="705.611" y1="578.565" x2="705.611" y2="590.931"/>
<line fill="none" stroke="#010101" stroke-linecap="round" stroke-linejoin="round" x1="705.611" y1="590.931" x2="742.71" y2="590.928"/>
<line fill="none" stroke="#010101" stroke-linecap="round" stroke-linejoin="round" x1="66.673" y1="590.969" x2="103.774" y2="590.966"/>
<line fill="none" stroke="#010101" stroke-linecap="round" stroke-linejoin="round" x1="66.672" y1="578.601" x2="66.673" y2="590.969"/>
<line fill="none" stroke="#010101" stroke-linecap="round" stroke-linejoin="round" x1="103.774" y1="578.6" x2="103.774" y2="590.966"/>
<line fill="none" stroke="#010101" stroke-linecap="round" stroke-linejoin="round" x1="66.672" y1="578.601" x2="103.774" y2="578.6"/>
<line fill="none" stroke="#010101" stroke-linecap="round" stroke-linejoin="round" x1="564.192" y1="543.177" x2="564.195" y2="557.446"/>
<line fill="none" stroke="#010101" stroke-linecap="round" stroke-linejoin="round" x1="564.192" y1="543.177" x2="508.546" y2="543.18"/>
<line fill="none" stroke="#010101" stroke-linecap="round" stroke-linejoin="round" x1="341.59" y1="461.103" x2="341.588" y2="407.159"/>
<line fill="none" stroke="#010101" stroke-linecap="round" stroke-linejoin="round" x1="341.596" y1="518.457" x2="341.593" y2="467.288"/>
<line fill="none" stroke="#010101" stroke-linecap="round" stroke-linejoin="round" x1="341.593" y1="467.288" x2="341.596" y2="518.457"/>
<line fill="none" stroke="#010101" stroke-linecap="round" stroke-linejoin="round" x1="341.588" y1="407.159" x2="341.59" y2="461.103"/>
<line fill="none" stroke="#010101" stroke-linecap="round" stroke-linejoin="round" x1="452.892" y1="461.099" x2="452.886" y2="407.151"/>
<line fill="none" stroke="#010101" stroke-linecap="round" stroke-linejoin="round" x1="452.895" y1="518.452" x2="452.892" y2="467.279"/>
<line fill="none" stroke="#010101" stroke-linecap="round" stroke-linejoin="round" x1="452.892" y1="467.279" x2="452.895" y2="518.452"/>
<line fill="none" stroke="#010101" stroke-linecap="round" stroke-linejoin="round" x1="452.886" y1="407.151" x2="452.892" y2="461.099"/>
<line fill="none" stroke="#010101" stroke-linecap="round" stroke-linejoin="round" x1="502.357" y1="543.182" x2="502.354" y2="405.446"/>
<line fill="none" stroke="#010101" stroke-linecap="round" stroke-linejoin="round" x1="292.123" y1="405.454" x2="292.13" y2="543.191"/>
<line fill="none" stroke="#010101" stroke-linecap="round" stroke-linejoin="round" x1="285.946" y1="551.478" x2="285.948" y2="543.191"/>
<line fill="none" stroke="#010101" stroke-linecap="round" stroke-linejoin="round" x1="341.596" y1="518.457" x2="452.895" y2="518.452"/>
<line fill="none" stroke="#010101" stroke-linecap="round" stroke-linejoin="round" x1="452.895" y1="518.452" x2="341.596" y2="518.457"/>
<line fill="none" stroke="#010101" stroke-linecap="round" stroke-linejoin="round" x1="341.588" y1="407.159" x2="452.886" y2="407.151"/>
<line fill="none" stroke="#010101" stroke-linecap="round" stroke-linejoin="round" x1="452.886" y1="407.151" x2="341.588" y2="407.159"/>
<line fill="none" stroke="#010101" stroke-linecap="round" stroke-linejoin="round" x1="508.534" y1="405.443" x2="285.937" y2="405.457"/>
<line fill="none" stroke="#010101" stroke-linecap="round" stroke-linejoin="round" x1="508.546" y1="543.18" x2="508.534" y2="405.443"/>
<line fill="none" stroke="#010101" stroke-linecap="round" stroke-linejoin="round" x1="285.948" y1="543.191" x2="508.546" y2="543.18"/>
<line fill="none" stroke="#010101" stroke-linecap="round" stroke-linejoin="round" x1="285.937" y1="405.457" x2="285.948" y2="543.191"/>
<line fill="none" stroke="#010101" stroke-linecap="round" stroke-linejoin="round" x1="730.342" y1="578.564" x2="730.333" y2="467.265"/>
<line fill="none" stroke="#010101" stroke-linecap="round" stroke-linejoin="round" x1="215.328" y1="578.594" x2="730.342" y2="578.564"/>
<line fill="none" stroke="#010101" stroke-linecap="round" stroke-linejoin="round" x1="215.328" y1="578.594" x2="215.324" y2="467.294"/>
<line fill="none" stroke="#010101" stroke-linecap="round" stroke-linejoin="round" x1="79.032" y1="467.299" x2="215.324" y2="467.294"/>
<line fill="none" stroke="#010101" stroke-linecap="round" stroke-linejoin="round" x1="292.125" y1="461.107" x2="502.357" y2="461.094"/>
<line fill="none" stroke="#010101" stroke-linecap="round" stroke-linejoin="round" x1="292.127" y1="467.29" x2="292.125" y2="461.107"/>
<line fill="none" stroke="#010101" stroke-linecap="round" stroke-linejoin="round" x1="502.357" y1="467.278" x2="292.127" y2="467.29"/>
<line fill="none" stroke="#010101" stroke-linecap="round" stroke-linejoin="round" x1="502.357" y1="461.094" x2="502.357" y2="467.278"/>
<line fill="none" stroke="#010101" stroke-linecap="round" stroke-linejoin="round" x1="508.546" y1="543.18" x2="285.948" y2="543.191"/>
<line fill="none" stroke="#010101" stroke-linecap="round" stroke-linejoin="round" x1="285.937" y1="399.274" x2="508.534" y2="399.261"/>
<line fill="none" stroke="#010101" stroke-linecap="round" stroke-linejoin="round" x1="285.937" y1="399.274" x2="285.937" y2="405.457"/>
<line fill="none" stroke="#010101" stroke-linecap="round" stroke-linejoin="round" x1="508.534" y1="405.443" x2="285.937" y2="405.457"/>
<line fill="none" stroke="#010101" stroke-linecap="round" stroke-linejoin="round" x1="508.534" y1="405.443" x2="508.534" y2="399.261"/>
<line fill="none" stroke="#010101" stroke-linecap="round" stroke-linejoin="round" x1="91.399" y1="417.835" x2="285.937" y2="417.822"/>
<line fill="none" stroke="#010101" stroke-linecap="round" stroke-linejoin="round" x1="91.401" y1="461.117" x2="91.399" y2="417.835"/>
<line fill="none" stroke="#010101" stroke-linecap="round" stroke-linejoin="round" x1="285.94" y1="461.107" x2="91.401" y2="461.117"/>
<line fill="none" stroke="#010101" stroke-linecap="round" stroke-linejoin="round" x1="285.937" y1="417.822" x2="285.94" y2="461.107"/>
<line fill="none" stroke="#010101" stroke-linecap="round" stroke-linejoin="round" x1="285.942" y1="467.29" x2="91.401" y2="467.299"/>
<line fill="none" stroke="#010101" stroke-linecap="round" stroke-linejoin="round" x1="285.942" y1="467.29" x2="285.94" y2="461.107"/>
<line fill="none" stroke="#010101" stroke-linecap="round" stroke-linejoin="round" x1="91.401" y1="461.117" x2="285.94" y2="461.107"/>
<line fill="none" stroke="#010101" stroke-linecap="round" stroke-linejoin="round" x1="91.401" y1="467.299" x2="91.401" y2="461.117"/>
<line fill="none" stroke="#010101" stroke-linecap="round" stroke-linejoin="round" x1="91.407" y1="474.6" x2="91.401" y2="415.299"/>
<line fill="none" stroke="#010101" stroke-linecap="round" stroke-linejoin="round" x1="79.039" y1="578.601" x2="91.407" y2="578.6"/>
<line fill="none" stroke="#010101" stroke-linecap="round" stroke-linejoin="round" x1="79.029" y1="355.999" x2="79.032" y2="467.299"/>
<line fill="none" stroke="#010101" stroke-linecap="round" stroke-linejoin="round" x1="591.541" y1="355.975" x2="79.029" y2="355.999"/>
<line fill="none" stroke="#010101" stroke-linecap="round" stroke-linejoin="round" x1="591.541" y1="355.975" x2="591.547" y2="467.271"/>
<line fill="none" stroke="#010101" stroke-linecap="round" stroke-linejoin="round" x1="730.333" y1="467.265" x2="591.547" y2="467.271"/>
<line fill="none" stroke="#010101" stroke-linecap="round" stroke-linejoin="round" x1="730.327" y1="355.964" x2="730.333" y2="467.265"/>
<line fill="none" stroke="#010101" stroke-linecap="round" stroke-linejoin="round" x1="717.962" y1="355.964" x2="730.327" y2="355.964"/>
<line fill="none" stroke="#010101" stroke-linecap="round" stroke-linejoin="round" x1="717.968" y1="467.265" x2="717.962" y2="355.964"/>
<line fill="none" stroke="#010101" stroke-linecap="round" stroke-linejoin="round" x1="730.333" y1="467.265" x2="717.968" y2="467.265"/>
<line fill="none" stroke="#010101" stroke-linecap="round" stroke-linejoin="round" x1="730.342" y1="578.564" x2="730.333" y2="467.265"/>
<line fill="none" stroke="#010101" stroke-linecap="round" stroke-linejoin="round" x1="717.974" y1="578.564" x2="730.342" y2="578.564"/>
<line fill="none" stroke="#010101" stroke-linecap="round" stroke-linejoin="round" x1="717.968" y1="467.265" x2="717.974" y2="578.564"/>
<line fill="none" stroke="#010101" stroke-linecap="round" stroke-linejoin="round" x1="91.401" y1="467.299" x2="91.394" y2="355.999"/>
<line fill="none" stroke="#010101" stroke-linecap="round" stroke-linejoin="round" x1="79.032" y1="467.299" x2="91.401" y2="467.299"/>
<line fill="none" stroke="#010101" stroke-linecap="round" stroke-linejoin="round" x1="79.029" y1="355.999" x2="79.032" y2="467.299"/>
<line fill="none" stroke="#010101" stroke-linecap="round" stroke-linejoin="round" x1="79.029" y1="355.999" x2="91.394" y2="355.999"/>
<line fill="none" stroke="#010101" stroke-linecap="round" stroke-linejoin="round" x1="564.187" y1="355.976" x2="508.534" y2="355.976"/>
<rect x="717.968" y="355.964" fill="#555555" width="12.359" height="221.601"/>
<path fill="none" stroke="#010101" stroke-miterlimit="10" d="M780.845,551.498c-101.483,5.363-200.961,6.849-301.924,5.363
	c-105.417-2.969-209.349-8.908-314.766-5.938c-48.997,1.484-96.509-1.485-145.942,2.288"/>
<rect x="66.672" y="578.601" fill="#555555" width="37.103" height="12.365"/>
<rect x="202.961" y="578.594" fill="#555555" width="539.746" height="12.337"/>
<path fill-rule="evenodd" clip-rule="evenodd" fill="none" stroke="#010101" stroke-miterlimit="10" d="M125.646,427.93
	c0.698,0.141,0.471,0.718,0.628,1.213c0.112,0.164,0.226,0.332,0.339,0.496c0.113,0.271,0.055,0.508,0.134,0.81
	c0.045,0.175,0.187,0.306,0.225,0.518c0.088,0.496-0.474,1.068-0.337,1.483c0.041,0.12,0.408,0.878,0.494,0.924
	c0.495,0.247,1.162,0.259,1.44,0.717c0.044,0.188,0.088,0.379,0.134,0.562c0.104,0.301,0.268,0.695,0.36,0.991
	c-0.01,0.247-0.016,0.492-0.025,0.739c0.187,0.977,0.786,2.157,0.584,3.016c-0.081,0.075-0.162,0.146-0.246,0.224
	c-0.014,0.099-0.032,0.195-0.045,0.291c-0.117,0.159-0.357,0.203-0.472,0.385c0.023,0.028,0.045,0.06,0.068,0.088
	c0.511,0.137,1.629,2.117,1.35,2.88c-0.217,0.584-0.865,0.739-1.507,0.922c0.004,0.909,0.217,1.762,0.064,2.674
	c-0.236,1.445-0.487,2.63-0.716,4.049c0.022,0.3,0.043,0.597,0.068,0.898c0.005,0.284,0.014,0.568,0.022,0.853
	c0.08,0.434,0.149,1.151,0.066,1.666c-0.207,1.282-0.289,2.304-0.494,3.572c-0.219,1.356,0.902,1.793,1.37,2.499
	c0.125,0.186,0.631,0.67,0.429,1.102c-0.124,0.257-1.362,0.345-1.731,0.182c-0.151-0.071-0.262-0.224-0.451-0.27
	c-0.354-0.092-0.622-0.073-0.876-0.227c-0.15-0.508-0.217-1.026-0.114-1.441c-0.014-0.159-0.03-0.329-0.043-0.491
	c0.068-0.284,0.23-0.505,0.29-0.854c-0.008-0.6-0.015-1.202-0.021-1.801c-0.397-0.111-0.797-0.225-1.192-0.336
	c0,0.03,0,0.061,0,0.09c0.284,0.803,0.532,1.789,0.606,2.81c0.019,0.244,0,1.204-0.09,1.304c-0.252,0.283-1.338,0.038-1.528-0.087
	c-0.016-0.484-0.198-0.934-0.043-1.352c0.109-0.3,0.529-0.571,0.45-1.012c-0.315-1.723-1.001-3.107-1.352-4.789
	c-0.073-0.355,0.027-0.715,0.067-1.01c-0.014-0.114-0.03-0.228-0.043-0.339c0.022-0.173,0.132-0.299,0.088-0.517
	c-0.163-0.735-0.329-1.47-0.495-2.202c-0.247-0.903-0.78-1.729-0.943-2.678c-0.088-0.502-0.018-1.503,0.045-1.799
	c-0.008-0.436-0.016-0.871-0.022-1.302c0.135-0.834,0.269-1.667,0.404-2.498c-0.08-0.069-0.06-0.111-0.202-0.137
	c-0.021,0.017-0.043,0.031-0.067,0.045c-0.021,0.137-0.049,0.176-0.181,0.202c0-0.11,0-0.225,0-0.335
	c0.172-0.55,0.206-0.395,0.631-0.649c-0.659-0.912-1.023-1.916-1.438-3.104c-0.062-0.173-0.374-1.076-0.317-1.237
	c0.111-0.307,0.236-0.546,0.429-0.767c-0.072-0.123-0.151-0.225-0.136-0.383c0.191-0.155,0.326-0.427,0.518-0.564
	c0.277-0.121,0.555-0.252,0.832-0.38c0.11-0.13,0.392-0.954,0.449-1.123c0.019-0.269,0.03-0.54,0.046-0.81
	c0.069-0.417-0.091-0.979,0-1.395c0.091-0.413,0.223-0.902,0.429-1.237c0.174-0.279,0.652-0.633,0.988-0.74
	C124.922,428.149,125.437,428.191,125.646,427.93z"/>
<path fill-rule="evenodd" clip-rule="evenodd" fill="none" stroke="#010101" stroke-miterlimit="10" d="M190.075,518.487
	c-0.238,0.066-0.473,0.137-0.71,0.201c-0.007-0.011-0.014-0.024-0.021-0.039c0-0.007,0-0.012,0-0.021
	c0.204-0.131,0.408-0.269,0.61-0.404c0.228-0.401-0.282-1.142,0.262-1.542c0.699-0.51,2.212-0.47,2.715,0.247
	c0.188,0.269,0.261,0.613,0.324,1.012c0.02,0.224,0.04,0.445,0.062,0.67c0.062,0.106,0.17,0.128,0.202,0.304
	c0.096,0.548-0.285,0.863-0.344,1.216c0.401,0.431,0.833,0.818,1.5,0.995c0.444,0.069,0.892,0.145,1.336,0.219
	c0,0.089,0,0.177,0,0.266c0.952,0.158,1.208,1.341,1.541,2.127c0.137,0.324,0.349,0.659,0.486,1.014
	c0.345,0.889,0.453,1.937,0.609,2.979c-0.034,0.223-0.069,0.445-0.103,0.668c0,0.251,0,0.499,0,0.751
	c-0.025,0.102-0.052,0.2-0.082,0.302c0.049,0.284,0.096,0.568,0.144,0.854c0.054,0.294-0.035,0.597-0.08,0.809
	c0.052,0,0.108,0,0.162,0c0.174-0.078,0.48-0.186,0.709-0.121c0,0.066,0,0.135,0,0.204c-0.083,0.15-0.22,0.099-0.345,0.201
	c-0.203,0.168-0.354,0.457-0.567,0.606c-0.087,0.048-0.178,0.096-0.263,0.145c-0.032,0.08,0.045,1.232,0.078,1.418
	c0.204,1.137-0.259,2.344-1.477,2.11c0.007-0.099,0.015-0.193,0.019-0.289c-0.029-0.081-0.117-0.081-0.142-0.223
	c-0.08,0-0.16,0-0.243,0c0.029-0.564,0.127-1.259,0.385-1.683c0.142-0.229,0.36-0.396,0.426-0.709
	c0.083-0.378-0.233-0.554-0.303-0.77c-0.036-0.203-0.068-0.404-0.101-0.606c0.159-0.136,0.065-0.551-0.062-0.629
	c-0.138,0.722-0.192,1.464-0.731,1.785c0.048,2.476-0.96,4.395-1.497,6.381c-0.007,0.359-0.014,0.719-0.021,1.077
	c-0.101,0.32-0.203,0.648-0.305,0.969c-0.074,0.348,0.477,0.803,0.345,1.382c-0.059,0.129-0.121,0.255-0.184,0.384
	c-0.031,0.52-0.066,1.038-0.102,1.562c0.088,0.256,0.176,0.513,0.266,0.768c0.124,0.614-0.15,1.14-0.144,1.766
	c0.005,0.461,0.221,0.731,0.122,1.214c-0.212,0.117-0.604,0.283-0.771,0.406c-0.101,0.59-0.303,0.85-0.667,1.155
	c0.007,0.635,0.233,1.558-0.325,1.825c-0.281,0.118-1.241-0.066-1.417-0.163c0-0.089,0-0.176,0-0.265
	c-0.216-0.018-0.338-0.102-0.467-0.203c-0.047-0.574,0.165-0.976,0.365-1.355c-0.104-0.459-0.155-0.78,0.02-1.299
	c0.087-0.26,0.451-0.664,0.404-0.934c-0.114-0.439-0.312-1.106-0.162-1.722c0.108-0.435,0.478-1.188,0.284-1.843
	c-0.148-0.506-0.472-1.057-0.607-1.604c-0.056-0.216-0.002-0.461,0-0.606c-0.056-0.154-0.109-0.309-0.162-0.468
	c-0.117-0.577,0.022-1.038-0.123-1.578c-0.126-0.482-0.438-1.047-0.608-1.539c-0.211-0.852-0.417-1.704-0.628-2.555
	c-0.081-0.501-0.161-0.999-0.242-1.5c-0.006-0.344-0.014-0.687-0.021-1.035c-0.09-0.255-0.177-0.513-0.265-0.77
	c-0.025,0.009-0.055,0.016-0.082,0.021c-0.024,0.05-0.053,0.093-0.08,0.141c0.018,0.089,0.043,0.177,0.062,0.264
	c-0.006,0-0.014,0-0.019,0c-0.432-0.272-0.31-1.478-0.306-2.167c0-0.2,0.058-0.403-0.042-0.528c-0.006,0-0.012,0-0.018,0
	c-0.346,0.46-0.692,0.922-1.035,1.379c0.037,0.229,0.136,0.379,0.041,0.586c-0.22,0.035-0.467-0.004-0.628,0.021
	c-0.049,0.163-0.17,0.394-0.121,0.63c0.057,0.265,0.26,0.467,0.325,0.771c0.005,0.348,0.012,0.7,0.017,1.052
	c0.015,0.092,0.028,0.19,0.04,0.281c-0.085,0.035-0.174,0.07-0.262,0.102c0,0.022,0,0.044,0,0.062
	c0.08,0.057,0.117,0.089,0.139,0.203c-0.024,0.021-0.051,0.041-0.078,0.061c-0.411-0.098-0.797,0.022-1.095-0.202
	c-0.121-0.093-0.128-0.286-0.184-0.447c-0.064-0.168-0.133-0.338-0.202-0.504c-0.071-0.334,0.294-1.105,0.386-1.379
	c0.012-0.155,0.027-0.312,0.04-0.467c0.068-0.209,0.319-0.399,0.286-0.628c-0.111,0.004-0.181,0.031-0.265-0.021
	c-0.007-0.013-0.012-0.029-0.021-0.039c-0.012-0.006-0.027-0.017-0.04-0.021c-0.047-0.145-0.092-0.285-0.144-0.428
	c-0.101-0.131-0.322-0.143-0.402-0.303c0-0.098,0-0.19,0-0.284c0.265-0.033,0.401,0.103,0.646,0.144
	c0.007-0.022,0.014-0.042,0.022-0.062c-0.084-0.3,0.013-0.919,0.143-1.113c0.06-0.072,0.122-0.138,0.183-0.203
	c0.116-0.354-0.021-0.679,0.139-0.975c0.123-0.162,0.245-0.324,0.366-0.488c0.013-0.206,0.028-0.417,0.041-0.625
	c0.064-0.219,0.333-0.638,0.364-0.771c-0.028-0.21-0.053-0.419-0.08-0.629c0.027-0.364,0.052-0.729,0.08-1.092
	c0.191-0.622,0.523-0.969,0.81-1.462c0.142-0.239,0.146-0.575,0.325-0.77c0.366-0.264,0.731-0.526,1.096-0.79
	c0.282-0.095,0.755,0.033,0.89-0.2c-0.106-0.383-0.214-0.757-0.324-1.136c-0.209-0.257-0.511-0.249-0.422-0.793
	c0.079-0.1,0.163-0.119,0.301-0.159C190.096,518.832,190.078,518.729,190.075,518.487z M186.791,533.526
	c-0.051,0.084-0.117,0.11-0.184,0.181c0.017,0.062,0.028,0.122,0.042,0.184c0.073,0.021,0.148,0.039,0.222,0.059
	c0-0.037,0-0.079,0-0.12C186.848,533.729,186.844,533.593,186.791,533.526z M197.025,534.438c-0.068,0.207-0.133,0.419-0.202,0.628
	c0.087,0.027,0.175,0.055,0.263,0.081C197.124,534.918,197.166,534.553,197.025,534.438z"/>
<path fill-rule="evenodd" clip-rule="evenodd" fill="none" stroke="#010101" stroke-miterlimit="10" d="M544.604,423.383
	c0.128,0,0.354-0.099,0.583-0.11c0.229-0.018,0.414,0.022,0.484-0.044c0.075-0.074,0.229-0.159,0.414-0.159
	c0.183,0,0.284,0,0.642,0.102c0.356,0.102,0.301,0.069,0.641,0.113c0.339,0.043,0.499,0.259,0.557,0.314
	c0.058,0.057,0.069,0.269,0.142,0.279c0.07,0.02,0.172,0.076,0.256,0.188c0.087,0.115,0.243,0.284,0.272,0.399
	c0.029,0.114-0.186,0.072-0.186,0.072l-0.128,0.069c0,0,0.026,0.144,0,0.202c-0.028,0.056-0.159,0.112-0.215,0.186
	c-0.058,0.07-0.072,0.168-0.072,0.168s0.029,0.142,0,0.242c-0.023,0.1-0.069,0.187-0.081,0.258
	c-0.018,0.069,0.069,0.143,0.197,0.286c0.128,0.141,0.383,0.411,0.368,0.484c-0.012,0.069-0.058,0.097-0.156,0.143
	c-0.099,0.041-0.299,0.056-0.313,0.112c-0.015,0.058-0.038,0.158-0.026,0.258c0.012,0.099,0.012,0.128,0.026,0.188
	c0.015,0.055,0,0.141-0.026,0.195c-0.031,0.057-0.058,0.086-0.031,0.216c0.031,0.128,0.102,0.399,0.102,0.455
	s-0.07,0.173-0.157,0.199c-0.084,0.029-0.284,0.029-0.411,0.069c-0.131,0.045-0.273,0.069-0.343,0.188
	c-0.072,0.11,0.041,0.2,0.041,0.2l0.586,0.57c0,0,0.145-0.017,0.354,0.082c0.215,0.102,0.386,0.215,0.574,0.301
	c0.183,0.085,0.339,0.184,0.409,0.324c0.075,0.144,0.272,0.287,0.33,0.373c0.058,0.087,0.328,0.8,0.412,0.898
	c0.084,0.101,0.142,0.041,0.142,0.214c0,0.168-0.099,0.156-0.025,0.356c0.069,0.2,0.168,0.285,0.196,0.482
	c0.026,0.202,0.116,0.5,0.131,0.585c0.012,0.085,0.069,0.229,0.069,0.357c0,0.126-0.127,0.526-0.186,0.641
	c-0.055,0.115-0.043,0.173,0,0.229c0.044,0.054,0.128,0.113,0.116,0.212c-0.015,0.102-0.072,0.158-0.072,0.213
	c0,0.059,0.043,0.571,0.058,0.742c0.015,0.17-0.015,0.469,0.026,0.684c0.044,0.213,0.102,0.439,0.102,0.555
	c0,0.113-0.018,0.257,0,0.415c0.012,0.156,0.069,0.457,0.058,0.581c-0.018,0.131-0.031,1.072-0.031,1.202
	c0,0.12-0.026,0.495-0.056,0.709c-0.028,0.214-0.043,0.486-0.072,0.714c-0.026,0.226-0.096,0.439-0.096,0.541
	c0,0.098,0.209,0.143,0.209,0.143s-0.056,0.256-0.069,0.37c-0.015,0.113-0.14,0.472-0.14,0.472l-0.087,0.025c0,0,0,0.498,0,0.6
	c0,0.1-0.015,0.169-0.015,0.384s-0.116,0.499-0.2,0.685c-0.087,0.186-0.072,0.384-0.186,0.613c-0.113,0.229-0.186,0.324-0.197,0.429
	c-0.018,0.101-0.145,1.662-0.159,1.881c-0.015,0.21-0.087,0.469-0.157,0.895c-0.072,0.428-0.101,0.756-0.153,1.07
	c-0.058,0.312-0.299,2.011-0.299,2.166c0,0.153-0.116,0.54-0.104,0.654c0.015,0.111-0.012,0.284,0.047,0.398
	c0.058,0.114,0.183,0.215,0.069,0.316c-0.116,0.097-0.2,0.297-0.356,0.383c-0.156,0.084-0.229,0.129-0.368,0.186
	c-0.146,0.055-0.229,0.242-0.229,0.324c0,0.087-0.287,1.472-0.287,1.472s0.131,0.042,0.131,0.109c0,0.073,0,0.103,0,0.159
	s0.029,0.155-0.029,0.229c-0.058,0.069-0.113,0.069-0.102,0.141c0.018,0.075,0.059,0.129,0.059,0.2c0,0.072-0.059,0.101,0,0.127
	c0.058,0.029,0.142,0.029,0.142,0.029l0.27-0.216l0.102,0.088c0,0-0.313,0.16-0.299,0.213c0.015,0.057,0.029,0.102,0.015,0.2
	c-0.015,0.101-0.015,0.242-0.015,0.315c0,0.069,0.044,0.153,0.044,0.24c0,0.084-0.059,0.198-0.044,0.344
	c0.015,0.141-0.043,0.269,0.044,0.439c0.084,0.172,0.153,0.629,0.2,0.784c0.04,0.158,0.04,0.213,0.183,0.37
	c0.142,0.158,0.186,0.213,0.27,0.356c0.087,0.145,0.215,0.285,0.215,0.389c0,0.097,0.058,0.224,0.058,0.381s0.015,0.256-0.043,0.313
	c-0.059,0.057-0.682,0.203-0.842,0.215c-0.156,0.015-0.44-0.012-0.623-0.044c-0.188-0.027-0.246-0.057-0.446-0.186
	c-0.197-0.126-0.383-0.229-0.481-0.4c-0.099-0.169-0.146-0.268-0.2-0.324c-0.059-0.059-0.299-0.242-0.383-0.271
	c-0.09-0.027-0.244,0.013-0.244-0.113c0-0.132,0.044-0.315,0.059-0.398c0.015-0.084-0.134-0.245-0.16-0.314
	c-0.025-0.072,0.088-0.328,0.088-0.413c0-0.086,0.087-0.484,0.099-0.555c0.014-0.073,0.186-0.971,0.186-0.971
	s0.043-0.399,0.043-0.556c0-0.159,0-0.314,0-0.314s0.084,0.029,0.099-0.041c0.015-0.073,0-0.156,0.015-0.245
	c0.015-0.085,0.131-0.138,0.131-0.138l0.025-0.229c0,0-0.058-1.157-0.058-1.253c0-0.104-0.015-0.374-0.084-0.572
	c-0.07-0.2-0.157-0.271-0.171-0.441c-0.015-0.171,0.014-0.203-0.026-0.258c-0.047-0.06-0.244-0.326-0.258-0.427
	c-0.018-0.099-0.029-0.242,0.058-0.372c0.084-0.126,0.212-0.229,0.24-0.355c0.029-0.125,0.157-0.186,0.087-0.358
	c-0.072-0.168-0.101-0.254-0.087-0.324c0.015-0.07,0.188-0.37,0.188-0.428c0-0.057,0.067-0.541,0.067-0.685
	s-0.099-0.769-0.099-0.854c0-0.088-0.087-0.298-0.087-0.298s-0.241,0.838-0.256,0.908c-0.014,0.074-0.084,0.146-0.142,0.344
	c-0.059,0.199-0.069,0.37-0.069,0.573c0,0.197,0.127,0.725,0.069,0.895c-0.059,0.17-0.186,0.641-0.197,0.727
	c-0.021,0.085,0.041,0.428,0.041,0.526c0,0.102-0.215,0.413-0.299,0.557c-0.087,0.144-0.2,0.258-0.2,0.258s-0.218,0.654-0.218,0.87
	c0,0.213-0.197,0.694-0.224,0.867c-0.028,0.17,0.012,0.442,0.012,0.442s0.073,0.087,0.087,0.141
	c0.018,0.057,0.041,0.228,0.041,0.228l0.072,0.171c0,0,0.072-0.171,0.128-0.081c0.055,0.081,0.102,0.197,0.102,0.281
	c0,0.085,0.012,0.356,0.012,0.541c0,0.186-0.059,1.042-0.084,1.213c-0.029,0.17-0.015,0.54-0.015,0.727
	c0,0.186,0.015,0.326,0.015,0.481c0,0.16,0.13,0.517,0.13,0.672c0,0.156-0.145,0.259-0.174,0.398
	c-0.026,0.141-0.102,0.284-0.197,0.356c-0.102,0.069-0.186,0.128-0.514,0.128c-0.327,0-0.429,0.015-0.666-0.069
	c-0.247-0.086-0.487-0.071-0.502-0.229c-0.012-0.156-0.258-0.471-0.241-0.628c0.012-0.153,0.012-0.296,0.029-0.468
	c0.012-0.172,0.026-0.229,0.084-0.442c0.058-0.214,0.128-0.284,0.128-0.386c0-0.098-0.012-0.071-0.012-0.312
	c0-0.244,0-0.499,0-0.588c0-0.082-0.047-0.197,0.012-0.47c0.058-0.27,0.043-0.341,0.043-0.526s0.015-0.398,0.044-0.512
	c0.026-0.114,0.072-0.285,0.084-0.429c0.015-0.14,0.026-0.325,0.026-0.325s-0.197-0.697-0.197-0.841
	c0-0.143-0.099-0.741-0.099-0.841c0-0.102-0.143-0.599-0.143-0.756c0-0.156-0.017-0.271-0.017-0.271s-0.14-0.227-0.184-0.414
	c-0.043-0.186-0.087-0.439-0.043-0.54c0.043-0.104,0.113-0.299,0.142-0.372c0.029-0.072,0.143-0.354,0.143-0.44
	c0-0.084,0-0.228,0.029-0.299c0.028-0.071,0.33-0.545,0.33-0.545s-0.102-0.339-0.131-0.425c-0.028-0.087-0.298-0.712-0.414-0.955
	c-0.11-0.241-0.27-0.556-0.354-0.813c-0.088-0.256,0.014-1.008,0.014-1.124c0-0.113-0.084-0.472-0.084-0.472s-0.203,0.115-0.203,0
	c0-0.111,0.032-0.282,0.073-0.442c0.043-0.153,0.171-0.438,0.171-0.581c0-0.142-0.015-0.599,0.018-0.671
	c0.025-0.073,0.04-0.425,0.04-0.425l-0.072-0.299c0,0-0.143-0.146-0.229-0.203c-0.084-0.056-0.226-0.21-0.255-0.299
	c-0.029-0.086-0.142-0.185-0.142-0.185l-0.102,0.012c0,0-0.197-0.523-0.212-0.667c-0.018-0.144,0.015-0.684,0.029-0.856
	c0.011-0.17,0.028-0.754,0.028-0.754s-0.304-0.47-0.374-0.559c-0.069-0.082-0.44-0.694-0.499-0.794
	c-0.055-0.101-0.354-0.385-0.354-0.385s-0.116,0.029-0.116,0.141c0,0.114-0.069,0.174-0.069,0.174s-0.299-0.188-0.299-0.344
	c0-0.154,0.026-0.245,0.026-0.343c0-0.101-0.041-0.285-0.084-0.357c-0.047-0.069-0.159-0.239-0.047-0.268
	c0.116-0.029,0.206-0.041,0.206-0.041s-0.159-0.218-0.159-0.274c0-0.058-0.015-0.097,0.043-0.213
	c0.059-0.111,0.313-0.596,0.328-0.71c0.012-0.115,0.041-0.504,0.041-0.743c0-0.243-0.128-0.243,0.031-0.455
	c0.154-0.218,0.212-0.3,0.224-0.413c0.015-0.116,0.032-0.387,0.046-0.568c0.012-0.189,0.084-0.359,0.197-0.587
	c0.116-0.229,0.287-0.971,0.371-1.056c0.088-0.084,0.113-0.239,0.244-0.397c0.127-0.158,0.243-0.383,0.243-0.47
	c0-0.086,0-0.313,0.067-0.428c0.075-0.114,0.374-0.27,0.527-0.356c0.159-0.086,0.699-0.568,0.771-0.643
	c0.069-0.069,0.426-0.228,0.554-0.313c0.131-0.085,0.745-0.312,0.745-0.312s0.096-0.313,0.186-0.413
	c0.081-0.099,0.154-0.143,0.229-0.155c0.069-0.015,0.209-0.102,0.209-0.102s0.115-0.043,0.115-0.102
	c0-0.055-0.186-0.181-0.186-0.181s-0.214-0.144-0.324-0.273c-0.119-0.13-0.359-0.329-0.374-0.513
	c-0.015-0.186-0.174-0.486-0.212-0.712c-0.046-0.229-0.032-0.487-0.018-0.583c0.018-0.103,0.029-0.759,0.029-0.886
	c0-0.126-0.113-0.256-0.069-0.355c0.04-0.1,0.127-0.228,0.255-0.384c0.128-0.158,0.287-0.37,0.313-0.484
	c0.031-0.115,0.199-0.259,0.261-0.284C544.272,423.582,544.479,423.383,544.604,423.383z"/>
<path fill="none" stroke="#010101" stroke-miterlimit="10" d="M238,256c-42.526,35.898-106.102,30.526-142-12
	c-28.719-34.021-24.421-84.881,9.6-113.6c27.216-22.975,67.905-19.537,90.88,7.68c18.38,21.773,15.629,54.324-6.144,72.704
	c-17.418,14.704-43.459,12.503-58.163-4.916c-11.763-13.935-10.003-34.767,3.932-46.53c11.148-9.411,27.814-8.002,37.224,3.146
	c7.529,8.918,6.402,22.251-2.517,29.78c-7.134,6.022-17.801,5.121-23.823-2.014c-4.818-5.708-4.097-14.24,1.61-19.059"/>
<path fill="none" stroke="#010101" stroke-miterlimit="10" d="M388,69c64.065-5.523,120.478,41.935,126,106
	c4.418,51.252-33.548,96.382-84.8,100.8c-41.002,3.535-77.105-26.838-80.64-67.84c-2.828-32.801,21.47-61.685,54.272-64.512
	c26.24-2.262,49.348,17.176,51.609,43.417c1.81,20.993-13.741,39.479-34.734,41.288c-16.794,1.448-31.582-10.993-33.03-27.787
	c-1.158-13.436,8.794-25.266,22.229-26.424c10.748-0.927,20.213,7.035,21.14,17.783c0.741,8.599-5.628,16.171-14.227,16.912"/>
<path fill="#010101" stroke="#010101" stroke-miterlimit="10" d="M574,168h67v-68c-37.586,0-68,30.414-68,68"/>
<path fill="#010101" stroke="#010101" stroke-miterlimit="10" d="M649,101v67h68c0-37.586-30.414-68-68-68"/>
<path fill="#010101" stroke="#010101" stroke-miterlimit="10" d="M715,175h-67v68c37.586,0,68-30.414,68-68"/>
<path fill="#010101" stroke="#010101" stroke-miterlimit="10" d="M640,242v-67h-68c0,37.586,30.414,68,68,68"/>
</svg>
