<?xml version="1.0" encoding="utf-8"?>
<!-- Generator: Adobe Illustrator 16.0.4, SVG Export Plug-In . SVG Version: 6.00 Build 0)  -->
<!DOCTYPE svg PUBLIC "-//W3C//DTD SVG 1.1//EN" "http://www.w3.org/Graphics/SVG/1.1/DTD/svg11.dtd">
<svg version="1.1" id="Layer_1" xmlns="http://www.w3.org/2000/svg" xmlns:xlink="http://www.w3.org/1999/xlink" x="0px" y="0px"
	 width="792px" height="612px" viewBox="0 0 792 612" enable-background="new 0 0 792 612" xml:space="preserve">
<rect x="12.967" y="135.817" fill="#7F7F7F" stroke="#000000" stroke-miterlimit="10" width="56.322" height="56.322"/>
<rect x="88.289" y="136.496" fill="#7F7F7F" stroke="#000000" stroke-miterlimit="10" width="110.607" height="57.679"/>
<circle fill="#7F7F7F" stroke="#000000" stroke-miterlimit="10" cx="44.859" cy="240.319" r="33.25"/>
<ellipse fill="#7F7F7F" stroke="#000000" stroke-miterlimit="10" cx="151.396" cy="246.765" rx="56.322" ry="31.554"/>
<polyline fill="#7F7F7F" stroke="#000000" stroke-miterlimit="10" points="15.44,359.913 83.3,320.555 131.768,342.886 
	206.799,317.162 225.122,359.913 "/>
<path fill="#7F7F7F" stroke="#000000" stroke-miterlimit="10" d="M17.476,465.898c24.327-84.456,96.31-75.957,106.489-44.064
	c3.213,13.312,36.319,23.071,55.999,0c19.679-23.07,67.933-50.49,80.785,33.049"/>
<rect x="267.148" y="131.227" fill="none" stroke="#000000" stroke-miterlimit="10" width="56.325" height="56.322"/>
<rect x="342.47" y="131.906" fill="none" stroke="#000000" stroke-miterlimit="10" width="110.608" height="57.68"/>
<circle fill="none" stroke="#000000" stroke-miterlimit="10" cx="299.041" cy="235.729" r="33.25"/>
<ellipse fill="none" stroke="#000000" stroke-miterlimit="10" cx="405.579" cy="242.174" rx="56.323" ry="31.554"/>
<polyline fill="none" stroke="#000000" stroke-miterlimit="10" points="269.623,355.322 337.482,315.965 385.95,338.296 
	460.98,312.571 479.303,355.322 "/>
<path fill="none" stroke="#000000" stroke-miterlimit="10" d="M271.658,461.309c24.327-84.457,96.309-75.958,106.489-44.064
	c3.213,13.312,36.319,23.071,55.999,0c19.68-23.07,67.933-50.489,80.784,33.049"/>
<rect x="538.62" y="138.571" fill="#7F7F7F" width="56.324" height="56.323"/>
<rect x="613.941" y="139.25" fill="#7F7F7F" width="110.608" height="57.679"/>
<circle fill="#7F7F7F" cx="570.513" cy="243.073" r="33.25"/>
<ellipse fill="#7F7F7F" cx="677.051" cy="249.518" rx="56.323" ry="31.554"/>
<polyline fill="#7F7F7F" points="541.095,362.666 608.955,323.309 657.422,345.64 732.453,319.915 750.774,362.666 "/>
<path fill="#7F7F7F" d="M543.131,468.652c24.326-84.456,96.308-75.956,106.487-44.064c3.213,13.312,36.318,23.072,55.999,0
	c19.68-23.07,67.933-50.489,80.784,33.049"/>
</svg>
